<?xml version="1.0" encoding="utf-8"?>
<!-- Generator: Adobe Illustrator 27.5.0, SVG Export Plug-In . SVG Version: 6.00 Build 0)  -->
<svg version="1.1" xmlns="http://www.w3.org/2000/svg" xmlns:xlink="http://www.w3.org/1999/xlink" x="0px" y="0px"
	 viewBox="0 0 500 500" style="enable-background:new 0 0 500 500;" xml:space="preserve">
<g id="BACKGROUND">
	<rect style="fill:#0582B9;" width="500" height="500"/>
</g>
<g id="OBJECTS">
	<g style="opacity:0.2;">
		<g>
			<g>
				<g>
					<path style="fill:#FFFFFF;" d="M249.781,396.575c-5.668,0-11.373-0.29-16.957-0.862l0.554-5.407
						c5.401,0.553,10.92,0.834,16.403,0.834l0.059,0v5.436L249.781,396.575z M257.359,396.404l-0.245-5.43
						c5.47-0.247,10.969-0.78,16.343-1.584l0.804,5.376C268.703,395.597,263.016,396.148,257.359,396.404z M225.358,394.774
						c-5.587-0.834-11.188-1.972-16.645-3.383l1.361-5.262c5.274,1.363,10.686,2.463,16.087,3.27L225.358,394.774z M281.675,393.479
						l-1.052-5.332c5.349-1.056,10.704-2.408,15.916-4.019l1.605,5.193C292.751,390.988,287.21,392.387,281.675,393.479z
						 M201.474,389.339c-5.213-1.609-10.42-3.51-15.477-5.649l-0.47-0.199l2.136-4.998l0.449,0.191
						c4.891,2.069,9.925,3.906,14.965,5.462L201.474,389.339z M305.28,386.933l-1.843-5.113c2.678-0.965,5.373-2.02,8.012-3.136
						c2.396-1.013,4.794-2.097,7.129-3.223l2.36,4.896c-2.415,1.164-4.895,2.285-7.372,3.333
						C310.837,384.844,308.05,385.935,305.28,386.933z M178.678,380.383c-5.094-2.453-10.107-5.196-14.899-8.154l2.855-4.625
						c4.632,2.858,9.478,5.51,14.403,7.882L178.678,380.383z M327.637,376.936l-2.582-4.783c4.802-2.593,9.519-5.467,14.019-8.543
						l3.067,4.487C337.485,371.28,332.606,374.254,327.637,376.936z M157.469,368.13c-4.65-3.175-9.194-6.639-13.506-10.296
						l3.515-4.146c4.169,3.535,8.562,6.883,13.057,9.953L157.469,368.13z M348.253,363.71l-3.271-4.341
						c4.342-3.272,8.576-6.821,12.585-10.548l3.701,3.981C357.123,356.655,352.744,360.325,348.253,363.71z M138.337,352.841
						c-1.488-1.383-2.974-2.815-4.416-4.257c-2.555-2.555-5.051-5.219-7.419-7.918l4.086-3.585c2.291,2.611,4.705,5.188,7.177,7.659
						c1.395,1.395,2.832,2.78,4.272,4.118L138.337,352.841z M366.66,347.556l-3.876-3.81c3.839-3.906,7.505-8.039,10.898-12.285
						l4.247,3.393C374.421,339.244,370.63,343.518,366.66,347.556z M121.671,334.9c-3.528-4.412-6.859-9.055-9.901-13.799
						l4.576-2.934c2.941,4.586,6.161,9.074,9.571,13.339L121.671,334.9z M382.488,328.869l-4.398-3.194
						c3.205-4.414,6.212-9.047,8.938-13.77l4.708,2.717C388.916,319.509,385.804,324.302,382.488,328.869z M107.855,314.673
						c-2.815-4.873-5.412-9.962-7.719-15.126l4.963-2.217c2.231,4.993,4.742,9.914,7.463,14.624L107.855,314.673z M395.346,308.021
						l-4.828-2.497c1.871-3.617,3.629-7.363,5.223-11.132c0.535-1.264,1.059-2.55,1.559-3.823l5.059,1.987
						c-0.517,1.317-1.06,2.647-1.612,3.954C399.098,300.407,397.281,304.28,395.346,308.021z M97.225,292.611
						c-2.07-5.264-3.881-10.684-5.385-16.108l5.238-1.452c1.453,5.243,3.204,10.481,5.205,15.571L97.225,292.611z M404.948,285.491
						l-5.145-1.753c1.76-5.168,3.265-10.482,4.472-15.794l5.3,1.204C408.326,274.646,406.769,280.144,404.948,285.491z M90,269.206
						c-1.25-5.493-2.225-11.124-2.897-16.736l5.397-0.647c0.65,5.425,1.592,10.867,2.8,16.176L90,269.206z M411.072,261.774
						l-5.351-0.957c0.957-5.354,1.646-10.835,2.045-16.291l5.421,0.397C412.774,250.566,412.063,256.236,411.072,261.774z
						 M86.379,244.982c-0.298-4.045-0.449-8.169-0.449-12.258c0-1.567,0.022-3.153,0.066-4.715l5.433,0.152
						c-0.042,1.512-0.064,3.047-0.064,4.563c0,3.956,0.146,7.946,0.434,11.859L86.379,244.982z M413.567,237.41l-5.433-0.151
						c0.042-1.504,0.063-3.029,0.063-4.534c0-3.965-0.147-7.964-0.436-11.888l5.421-0.4c0.299,4.056,0.451,8.191,0.451,12.288
						C413.632,234.279,413.61,235.856,413.567,237.41z M91.798,220.894l-5.421-0.398c0.414-5.645,1.127-11.314,2.119-16.851
						l5.35,0.958C92.888,209.955,92.198,215.436,91.798,220.894z M407.06,213.596c-0.651-5.426-1.595-10.868-2.804-16.175l5.3-1.208
						c1.251,5.491,2.227,11.122,2.9,16.735L407.06,213.596z M95.294,197.476l-5.3-1.205c1.25-5.497,2.808-10.995,4.63-16.342
						l5.145,1.754C98.008,186.85,96.502,192.164,95.294,197.476z M402.476,190.37c-1.454-5.244-3.206-10.482-5.208-15.57l5.059-1.99
						c2.07,5.263,3.883,10.682,5.387,16.107L402.476,190.37z M102.273,174.854l-5.059-1.988c0.514-1.309,1.053-2.63,1.601-3.926
						c1.653-3.908,3.475-7.79,5.415-11.539l4.827,2.498c-1.876,3.625-3.637,7.379-5.236,11.158
						C103.291,172.311,102.77,173.588,102.273,174.854z M394.452,168.092c-2.232-4.993-4.744-9.913-7.466-14.623l4.706-2.72
						c2.816,4.872,5.414,9.961,7.722,15.124L394.452,168.092z M112.548,153.518l-4.707-2.718c2.821-4.885,5.933-9.678,9.25-14.245
						l4.398,3.194C118.284,144.164,115.275,148.796,112.548,153.518z M383.202,147.258c-2.941-4.585-6.162-9.072-9.574-13.337
						l4.245-3.395c3.529,4.412,6.861,9.055,9.904,13.798L383.202,147.258z M125.899,133.965l-4.246-3.394
						c3.508-4.389,7.3-8.662,11.27-12.7l3.876,3.811C132.958,125.588,129.291,129.721,125.899,133.965z M368.955,128.345
						c-2.286-2.604-4.694-5.174-7.158-7.637c-1.401-1.402-2.846-2.794-4.293-4.138l3.699-3.983c1.497,1.39,2.989,2.829,4.438,4.277
						c2.547,2.547,5.036,5.203,7.399,7.895L368.955,128.345z M142.016,116.608l-3.7-3.981c4.145-3.853,8.525-7.523,13.017-10.906
						l3.27,4.341C150.26,109.334,146.025,112.882,142.016,116.608z M352.063,111.741c-4.17-3.534-8.564-6.882-13.059-9.951
						l3.065-4.489c4.65,3.174,9.195,6.638,13.508,10.293L352.063,111.741z M160.512,101.822l-3.066-4.488
						c4.657-3.181,9.537-6.154,14.505-8.836l2.582,4.783C169.731,95.873,165.013,98.746,160.512,101.822z M332.904,97.83
						c-4.634-2.858-9.48-5.509-14.404-7.88l2.357-4.898c5.094,2.452,10.107,5.194,14.9,8.151L332.904,97.83z M181.011,89.975
						l-2.359-4.897c2.404-1.158,4.875-2.275,7.344-3.32c2.735-1.157,5.533-2.252,8.314-3.254l1.842,5.114
						c-2.689,0.969-5.394,2.027-8.038,3.146C185.726,87.775,183.336,88.855,181.011,89.975z M311.876,86.946l-0.427-0.181
						c-4.898-2.072-9.941-3.912-14.991-5.47l1.602-5.194c5.224,1.612,10.441,3.515,15.505,5.657l0.439,0.187L311.876,86.946z
						 M203.051,81.312l-1.604-5.193c5.393-1.666,10.935-3.064,16.47-4.156l1.051,5.333C213.619,78.35,208.263,79.701,203.051,81.312
						z M289.46,79.313c-5.275-1.363-10.687-2.462-16.087-3.267l0.801-5.376c5.587,0.833,11.188,1.97,16.646,3.38L289.46,79.313z
						 M226.134,76.054l-0.803-5.376c5.559-0.831,11.246-1.381,16.902-1.636l0.244,5.43
						C237.007,74.719,231.508,75.251,226.134,76.054z M266.156,75.14c-5.391-0.551-10.9-0.831-16.374-0.831l-0.029,0v-5.435v2.718
						l0.007-2.718c5.681,0,11.376,0.289,16.95,0.859L266.156,75.14z"/>
				</g>
			</g>
			<g>
				
					<ellipse transform="matrix(0.7071 -0.7071 0.7071 0.7071 -91.4016 244.7853)" style="fill:#FFFFFF;" cx="249.781" cy="232.724" rx="143.275" ry="143.275"/>
			</g>
		</g>
	</g>
	<ellipse style="opacity:0.2;" cx="252.433" cy="373.242" rx="201.733" ry="68.977"/>
	<g>
		<g>
			<g>
				<g>
					<path style="fill:#FDB748;" d="M436.664,327.042l0.03,16.159c0,0.162-0.005,0.33-0.01,0.493
						c-0.168,5.522-3.429,10.519-8.475,12.818c-7.075,3.223-15.45,5.729-24.59,7.576c-2.836,0.579-5.742,1.093-8.707,1.543
						c-6.521,0.987-13.325,1.676-20.242,2.084c-2.447,0.145-4.904,0.253-7.372,0.328c-9.267,0.277-18.638,0.078-27.739-0.56
						c-4.077-0.29-8.1-0.667-12.036-1.131c-10.098-1.188-19.597-2.941-27.91-5.194c-4.772-1.29-9.154-2.744-13.033-4.355
						c-1.799-0.744-3.392-1.818-4.721-3.131c-2.56-2.534-4.147-5.969-4.327-9.682c-0.017-0.233-0.023-0.465-0.023-0.698
						l-0.03-15.953L436.664,327.042z"/>
				</g>
				<g>
					<g>
						<g>
							<path style="fill:#FF901E;" d="M436.684,343.694c-0.168,5.522-3.429,10.519-8.475,12.818
								c-9.271,4.224-20.763,7.217-33.297,9.119c-8.821,1.332-18.163,2.123-27.615,2.412c-9.267,0.277-18.638,0.078-27.739-0.56
								c-4.077-0.29-8.1-0.667-12.036-1.131c-10.098-1.188-19.597-2.941-27.91-5.194c-4.772-1.29-9.154-2.744-13.033-4.355
								c-1.799-0.744-3.392-1.818-4.721-3.131c-2.56-2.534-4.147-5.969-4.327-9.682c3.164,1.45,6.496,2.798,9.957,4.031
								c6.164,2.197,12.761,4.058,19.65,5.583c9.185,2.035,18.888,3.473,28.77,4.331c4.109,0.355,8.257,0.607,12.404,0.762
								c9.674,0.361,19.391,0.175,28.831-0.535c10.251-0.777,20.182-2.181,29.398-4.201
								C417.931,351.464,428.226,348.034,436.684,343.694z"/>
						</g>
					</g>
				</g>
				<path style="opacity:0.2;fill:#FFEAA5;" d="M333.409,327.234l-26.271,26.369l-7.527,7.555c-4.772-1.29-9.154-2.744-13.033-4.355
					c-1.799-0.744-3.392-1.818-4.721-3.131l5.63-5.651l20.662-20.739L333.409,327.234z"/>
				<path style="opacity:0.2;fill:#FFEAA5;" d="M436.664,327.042l0.007,3.957l-22.553,22.637l-10.499,10.451
					c-2.836,0.579-5.742,1.093-8.707,1.543c-6.521,0.987-13.325,1.676-20.242,2.084l10.051-9.876l30.637-30.756L436.664,327.042z"/>
				<path style="opacity:0.2;fill:#FFEAA5;" d="M379.737,327.148l-31.426,31.548l-8.753,8.786c-4.077-0.29-8.1-0.667-12.036-1.131
					l8.386-8.417l30.647-30.762L379.737,327.148z"/>
			</g>
			<g>
				<g>
					<path style="fill:#FFEAA5;" d="M436.664,326.781c0.022,11.683-35.592,21.221-79.553,21.303
						c-43.957,0.082-79.611-9.324-79.632-21.007c0-0.262,0.015-0.524,0.058-0.786c1.527-11.322,36.524-20.437,79.495-20.517
						c42.971-0.08,78.002,8.905,79.571,20.221C436.646,326.258,436.663,326.52,436.664,326.781z"/>
					<path style="fill:#FF901E;" d="M420.687,326.811c0.001,0.259-0.026,0.519-0.061,0.776c-1.519,8.968-29.421,16.187-63.524,16.25
						c-34.102,0.064-62.031-7.052-63.584-16.014c-0.036-0.257-0.063-0.517-0.064-0.776c-0.017-9.323,28.505-16.961,63.584-17.027
						C392.118,309.956,420.669,317.487,420.687,326.811z"/>
					<path style="fill:#FDB748;" d="M420.626,327.587c-1.519,8.968-29.421,16.187-63.524,16.25
						c-0.763,0.002-1.518-0.002-2.272-0.007c-7.607-0.057-14.878-0.47-21.589-1.182c-6.712-0.712-12.856-1.72-18.202-2.965
						c-1.358-0.316-2.664-0.646-3.925-0.993c-5.701-1.577-10.267-3.447-13.316-5.522c-0.738-0.496-1.387-1.007-1.938-1.525
						c-1.316-1.222-2.108-2.502-2.342-3.82c1.519-8.968,29.421-16.189,63.524-16.253c4.314-0.008,8.53,0.1,12.614,0.311
						c2.077,0.107,4.128,0.242,6.134,0.404c8.194,0.657,15.688,1.745,22.108,3.165c1.385,0.307,2.726,0.63,4.014,0.969
						c5,1.312,9.183,2.845,12.32,4.54c3.056,1.653,5.119,3.456,5.993,5.358C420.42,326.736,420.554,327.16,420.626,327.587z"/>
					<path style="opacity:0.2;fill:#FFEAA5;" d="M420.224,326.319L354.83,343.83c-7.607-0.057-14.878-0.47-21.589-1.182
						l80.991-21.688C417.288,322.613,419.351,324.417,420.224,326.319z"/>
					<path style="opacity:0.2;fill:#FFEAA5;" d="M375.79,312.286l-77.992,20.882c-0.738-0.496-1.387-1.007-1.938-1.525
						l73.796-19.761C371.733,311.99,373.784,312.125,375.79,312.286z"/>
					<path style="opacity:0.2;fill:#FFEAA5;" d="M401.912,316.421l-86.873,23.263c-1.358-0.316-2.664-0.646-3.925-0.993
						l86.784-23.239C399.283,315.758,400.624,316.081,401.912,316.421z"/>
					<g>
						<path style="fill:#FF5E00;" d="M389.601,319.831l-21.084,0.039c1.839,0.748,3.343,1.648,4.147,2.72l16.942-0.032l0.006,3.224
							l-16.802,0.031c-2.037,3.126-10.365,4.825-16.708,5.518c-1.754,0.194-3.647,0.284-5.541,0.288l-8.555,0.016l33.835,8.926
							l-15.823,0.029l-33.835-8.926l-0.006-3.224l19.75-0.037c6.4-0.012,11.949-1.071,14.176-2.568l-32.065,0.06l-0.006-3.223
							l32.046-0.06c-2.046-1.539-6.526-2.358-9.008-2.711l-23.043,0.043l-0.006-3.224l61.573-0.115L389.601,319.831z"/>
						<path style="fill:#FF8400;" d="M389.599,319.148l-21.084,0.039c1.839,0.748,3.343,1.648,4.147,2.72l16.942-0.031l0.006,3.224
							l-16.802,0.031c-2.037,3.126-10.365,4.825-16.708,5.518c-1.754,0.194-3.647,0.285-5.541,0.288l-8.555,0.016l33.835,8.926
							l-15.822,0.03l-33.836-8.926l-0.006-3.223l19.75-0.037c6.4-0.012,11.949-1.071,14.176-2.568l-32.065,0.06l-0.006-3.224
							l32.046-0.06c-2.046-1.538-6.526-2.358-9.008-2.711l-23.043,0.043l-0.006-3.223l61.573-0.115L389.599,319.148z"/>
					</g>
				</g>
			</g>
		</g>
		<g>
			<g>
				<g>
					<path style="fill:#FDB748;" d="M410.475,302.708l0.03,16.159c0,0.162-0.005,0.33-0.01,0.493
						c-0.168,5.522-3.429,10.519-8.475,12.818c-7.075,3.223-15.45,5.729-24.59,7.576c-2.836,0.579-5.742,1.093-8.707,1.543
						c-6.521,0.987-13.325,1.676-20.242,2.084c-2.447,0.145-4.904,0.253-7.372,0.328c-9.267,0.277-18.638,0.078-27.739-0.56
						c-4.077-0.29-8.1-0.667-12.036-1.131c-10.098-1.188-19.597-2.941-27.91-5.194c-4.772-1.29-9.154-2.744-13.033-4.355
						c-1.799-0.744-3.392-1.818-4.721-3.131c-2.56-2.534-4.147-5.969-4.327-9.682c-0.017-0.233-0.023-0.465-0.023-0.698
						l-0.03-15.953L410.475,302.708z"/>
				</g>
				<g>
					<g>
						<g>
							<path style="fill:#FF901E;" d="M410.495,319.359c-0.168,5.522-3.429,10.519-8.475,12.818
								c-9.271,4.224-20.763,7.217-33.297,9.119c-8.821,1.332-18.163,2.123-27.615,2.412c-9.267,0.277-18.638,0.078-27.739-0.56
								c-4.077-0.29-8.1-0.667-12.036-1.131c-10.098-1.188-19.597-2.941-27.91-5.194c-4.772-1.29-9.154-2.744-13.033-4.355
								c-1.799-0.744-3.392-1.818-4.721-3.131c-2.56-2.534-4.147-5.969-4.327-9.682c3.164,1.45,6.496,2.798,9.957,4.031
								c6.164,2.197,12.761,4.058,19.65,5.583c9.185,2.035,18.888,3.473,28.769,4.331c4.109,0.355,8.257,0.607,12.404,0.762
								c9.674,0.361,19.391,0.175,28.831-0.535c10.251-0.777,20.182-2.181,29.398-4.201
								C391.741,327.13,402.037,323.7,410.495,319.359z"/>
						</g>
					</g>
				</g>
				<path style="opacity:0.2;fill:#FFEAA5;" d="M307.22,302.9l-26.271,26.369l-7.527,7.555c-4.772-1.29-9.154-2.744-13.033-4.355
					c-1.799-0.744-3.392-1.818-4.721-3.131l5.63-5.651l20.662-20.739L307.22,302.9z"/>
				<path style="opacity:0.2;fill:#FFEAA5;" d="M410.475,302.708l0.007,3.957l-22.553,22.637l-10.499,10.451
					c-2.836,0.579-5.742,1.093-8.707,1.543c-6.521,0.987-13.325,1.676-20.242,2.084l10.051-9.876l30.637-30.756L410.475,302.708z"/>
				<path style="opacity:0.2;fill:#FFEAA5;" d="M353.548,302.814l-31.426,31.548l-8.753,8.786c-4.077-0.29-8.1-0.667-12.036-1.131
					l8.386-8.417l30.648-30.762L353.548,302.814z"/>
			</g>
			<g>
				<g>
					<path style="fill:#FFEAA5;" d="M410.474,302.447c0.022,11.683-35.592,21.221-79.553,21.303
						c-43.957,0.082-79.611-9.323-79.632-21.007c-0.001-0.262,0.015-0.524,0.058-0.786c1.527-11.322,36.524-20.437,79.495-20.517
						c42.971-0.08,78.002,8.905,79.571,20.221C410.457,301.924,410.474,302.185,410.474,302.447z"/>
					<path style="fill:#FF901E;" d="M394.497,302.477c0.001,0.259-0.026,0.519-0.061,0.776c-1.519,8.968-29.421,16.187-63.524,16.25
						c-34.102,0.063-62.031-7.052-63.584-16.014c-0.036-0.257-0.063-0.517-0.063-0.776c-0.017-9.323,28.506-16.961,63.584-17.027
						C365.929,285.622,394.48,293.153,394.497,302.477z"/>
					<path style="fill:#FDB748;" d="M394.437,303.253c-1.519,8.968-29.421,16.187-63.524,16.25
						c-0.763,0.001-1.518-0.002-2.272-0.008c-7.607-0.057-14.878-0.47-21.589-1.182c-6.712-0.712-12.856-1.72-18.202-2.965
						c-1.359-0.316-2.664-0.646-3.925-0.993c-5.701-1.577-10.267-3.447-13.316-5.522c-0.738-0.496-1.387-1.007-1.938-1.525
						c-1.316-1.222-2.108-2.501-2.342-3.82c1.519-8.968,29.421-16.189,63.524-16.253c4.314-0.008,8.53,0.1,12.614,0.311
						c2.077,0.107,4.128,0.242,6.134,0.404c8.194,0.657,15.687,1.745,22.108,3.165c1.385,0.306,2.726,0.629,4.014,0.969
						c5,1.312,9.183,2.845,12.32,4.54c3.056,1.653,5.119,3.456,5.993,5.358C394.231,302.402,394.365,302.826,394.437,303.253z"/>
					<path style="opacity:0.2;fill:#FFEAA5;" d="M394.035,301.985l-65.394,17.511c-7.607-0.057-14.878-0.47-21.589-1.182
						l80.991-21.688C391.099,298.279,393.162,300.082,394.035,301.985z"/>
					<path style="opacity:0.2;fill:#FFEAA5;" d="M349.601,287.952l-77.992,20.882c-0.738-0.496-1.387-1.007-1.938-1.525
						l73.796-19.761C345.544,287.655,347.595,287.791,349.601,287.952z"/>
					<path style="opacity:0.2;fill:#FFEAA5;" d="M375.723,292.086l-86.873,23.263c-1.359-0.316-2.664-0.646-3.925-0.993
						l86.784-23.239C373.094,291.424,374.435,291.747,375.723,292.086z"/>
					<g>
						<path style="fill:#FF5E00;" d="M363.411,295.497l-21.084,0.039c1.839,0.748,3.343,1.648,4.147,2.72l16.942-0.031l0.006,3.223
							l-16.802,0.031c-2.037,3.126-10.365,4.825-16.708,5.518c-1.754,0.194-3.647,0.285-5.541,0.288l-8.555,0.016l33.835,8.926
							l-15.822,0.029l-33.835-8.926l-0.006-3.223l19.75-0.037c6.4-0.012,11.949-1.071,14.176-2.568l-32.065,0.06l-0.006-3.224
							l32.046-0.06c-2.046-1.539-6.526-2.358-9.008-2.711l-23.043,0.043l-0.006-3.224l61.573-0.115L363.411,295.497z"/>
						<path style="fill:#FF8400;" d="M363.41,294.814l-21.084,0.039c1.839,0.748,3.343,1.648,4.147,2.72l16.942-0.032l0.006,3.224
							l-16.802,0.031c-2.037,3.126-10.365,4.825-16.708,5.519c-1.754,0.194-3.647,0.284-5.541,0.288l-8.555,0.016l33.835,8.926
							l-15.822,0.03l-33.835-8.926l-0.006-3.223l19.75-0.037c6.4-0.012,11.949-1.071,14.176-2.568l-32.065,0.06l-0.006-3.223
							l32.046-0.06c-2.046-1.538-6.526-2.358-9.008-2.711l-23.043,0.043l-0.006-3.224l61.573-0.115L363.41,294.814z"/>
					</g>
				</g>
			</g>
		</g>
		<g>
			<g>
				<g>
					<path style="fill:#FDB748;" d="M440.049,276.806l0.03,16.159c0,0.162-0.005,0.33-0.01,0.493
						c-0.168,5.522-3.429,10.519-8.475,12.818c-7.075,3.223-15.45,5.729-24.59,7.576c-2.836,0.579-5.742,1.093-8.707,1.543
						c-6.521,0.986-13.325,1.676-20.242,2.084c-2.447,0.145-4.904,0.253-7.372,0.328c-9.267,0.277-18.638,0.078-27.739-0.56
						c-4.077-0.29-8.1-0.667-12.036-1.131c-10.098-1.188-19.597-2.941-27.91-5.194c-4.772-1.29-9.154-2.744-13.033-4.355
						c-1.799-0.744-3.392-1.818-4.721-3.131c-2.56-2.534-4.147-5.969-4.327-9.682c-0.017-0.233-0.023-0.466-0.023-0.698
						l-0.03-15.953L440.049,276.806z"/>
				</g>
				<g>
					<g>
						<g>
							<path style="fill:#FF901E;" d="M440.069,293.458c-0.168,5.522-3.429,10.519-8.475,12.818
								c-9.271,4.224-20.763,7.217-33.297,9.119c-8.821,1.332-18.163,2.123-27.615,2.412c-9.267,0.277-18.638,0.078-27.739-0.56
								c-4.077-0.29-8.1-0.667-12.036-1.131c-10.098-1.188-19.597-2.941-27.91-5.194c-4.772-1.29-9.154-2.744-13.033-4.355
								c-1.799-0.744-3.392-1.818-4.721-3.131c-2.56-2.534-4.147-5.969-4.327-9.682c3.164,1.45,6.496,2.797,9.957,4.031
								c6.164,2.197,12.762,4.058,19.65,5.582c9.185,2.035,18.888,3.473,28.769,4.331c4.109,0.355,8.257,0.607,12.403,0.762
								c9.674,0.361,19.391,0.175,28.831-0.535c10.251-0.777,20.182-2.181,29.398-4.201
								C421.315,301.229,431.61,297.799,440.069,293.458z"/>
						</g>
					</g>
				</g>
				<path style="opacity:0.2;fill:#FFEAA5;" d="M336.794,276.999l-26.271,26.369l-7.527,7.555c-4.772-1.29-9.154-2.744-13.033-4.355
					c-1.799-0.744-3.392-1.818-4.721-3.131l5.63-5.651l20.662-20.739L336.794,276.999z"/>
				<path style="opacity:0.2;fill:#FFEAA5;" d="M440.049,276.806l0.007,3.957l-22.553,22.638l-10.499,10.451
					c-2.836,0.579-5.742,1.093-8.707,1.543c-6.521,0.986-13.325,1.676-20.242,2.084l10.051-9.876l30.637-30.756L440.049,276.806z"/>
				<path style="opacity:0.2;fill:#FFEAA5;" d="M383.122,276.912l-31.426,31.548l-8.753,8.786c-4.077-0.29-8.1-0.667-12.036-1.131
					l8.386-8.417l30.648-30.762L383.122,276.912z"/>
			</g>
			<g>
				<g>
					<path style="fill:#FFEAA5;" d="M440.048,276.546c0.022,11.683-35.591,21.221-79.553,21.303
						c-43.957,0.082-79.611-9.323-79.632-21.007c0-0.262,0.015-0.524,0.058-0.786c1.527-11.322,36.524-20.437,79.495-20.517
						c42.971-0.08,78.002,8.905,79.571,20.221C440.031,276.022,440.048,276.284,440.048,276.546z"/>
					<path style="fill:#FF901E;" d="M424.071,276.576c0,0.259-0.026,0.519-0.061,0.776c-1.519,8.968-29.421,16.187-63.524,16.25
						c-34.102,0.064-62.031-7.052-63.584-16.014c-0.036-0.257-0.063-0.516-0.063-0.776c-0.017-9.323,28.505-16.961,63.584-17.027
						C395.503,259.72,424.054,267.252,424.071,276.576z"/>
					<path style="fill:#FDB748;" d="M424.011,277.352c-1.519,8.968-29.421,16.187-63.524,16.25
						c-0.763,0.001-1.518-0.002-2.272-0.008c-7.607-0.057-14.877-0.47-21.589-1.182c-6.712-0.712-12.856-1.72-18.202-2.965
						c-1.359-0.316-2.664-0.646-3.925-0.993c-5.701-1.577-10.267-3.447-13.316-5.522c-0.738-0.496-1.387-1.007-1.938-1.525
						c-1.316-1.222-2.108-2.501-2.342-3.82c1.519-8.968,29.421-16.189,63.524-16.253c4.314-0.008,8.53,0.1,12.614,0.311
						c2.077,0.107,4.128,0.242,6.134,0.404c8.194,0.657,15.688,1.745,22.108,3.165c1.385,0.306,2.726,0.629,4.014,0.969
						c5,1.312,9.183,2.845,12.32,4.54c3.056,1.653,5.119,3.456,5.993,5.358C423.805,276.5,423.939,276.925,424.011,277.352z"/>
					<path style="opacity:0.2;fill:#FFEAA5;" d="M423.609,276.083l-65.394,17.511c-7.607-0.057-14.877-0.47-21.589-1.182
						l80.991-21.688C420.673,272.378,422.735,274.181,423.609,276.083z"/>
					<path style="opacity:0.2;fill:#FFEAA5;" d="M379.175,262.051l-77.992,20.883c-0.738-0.496-1.387-1.007-1.938-1.525
						l73.796-19.761C375.118,261.754,377.168,261.889,379.175,262.051z"/>
					<path style="opacity:0.2;fill:#FFEAA5;" d="M405.296,266.185l-86.873,23.263c-1.359-0.316-2.664-0.646-3.925-0.993
						l86.784-23.239C402.668,265.522,404.009,265.845,405.296,266.185z"/>
					<g>
						<path style="fill:#FF5E00;" d="M392.985,269.596l-21.084,0.039c1.839,0.748,3.343,1.648,4.147,2.72l16.942-0.031l0.006,3.224
							l-16.802,0.031c-2.037,3.126-10.365,4.825-16.708,5.518c-1.754,0.194-3.647,0.285-5.541,0.288l-8.555,0.016l33.835,8.926
							l-15.822,0.029l-33.836-8.926l-0.006-3.224l19.75-0.037c6.4-0.012,11.949-1.071,14.176-2.568l-32.065,0.06l-0.006-3.223
							l32.046-0.06c-2.046-1.539-6.526-2.358-9.008-2.711l-23.043,0.043l-0.006-3.224l61.573-0.115L392.985,269.596z"/>
						<path style="fill:#FF8400;" d="M392.984,268.913l-21.084,0.039c1.839,0.748,3.343,1.648,4.147,2.72l16.942-0.031l0.006,3.223
							l-16.802,0.031c-2.037,3.126-10.365,4.825-16.708,5.518c-1.754,0.194-3.647,0.284-5.541,0.288l-8.555,0.016l33.835,8.926
							l-15.822,0.029l-33.835-8.926l-0.006-3.224l19.75-0.037c6.4-0.012,11.949-1.071,14.176-2.568l-32.065,0.06l-0.006-3.223
							l32.046-0.06c-2.046-1.539-6.526-2.358-9.008-2.711l-23.043,0.043l-0.006-3.224l61.573-0.115L392.984,268.913z"/>
					</g>
				</g>
			</g>
		</g>
		<g>
			<g>
				<g>
					<path style="fill:#FDB748;" d="M410.384,251.014l0.03,16.159c0,0.162-0.005,0.33-0.01,0.493
						c-0.168,5.522-3.429,10.519-8.475,12.818c-7.075,3.223-15.45,5.729-24.59,7.576c-2.836,0.579-5.742,1.093-8.707,1.543
						c-6.521,0.986-13.325,1.676-20.242,2.084c-2.447,0.145-4.904,0.253-7.372,0.328c-9.267,0.277-18.638,0.078-27.739-0.56
						c-4.077-0.29-8.1-0.667-12.036-1.131c-10.098-1.189-19.597-2.941-27.91-5.194c-4.772-1.29-9.154-2.744-13.033-4.355
						c-1.799-0.744-3.392-1.818-4.721-3.131c-2.56-2.534-4.147-5.969-4.327-9.682c-0.017-0.233-0.023-0.466-0.023-0.698
						l-0.03-15.953L410.384,251.014z"/>
				</g>
				<g>
					<g>
						<g>
							<path style="fill:#FF901E;" d="M410.404,267.666c-0.168,5.522-3.429,10.519-8.475,12.818
								c-9.271,4.224-20.763,7.217-33.297,9.119c-8.821,1.332-18.163,2.123-27.615,2.412c-9.267,0.277-18.638,0.078-27.739-0.56
								c-4.077-0.29-8.1-0.667-12.036-1.131c-10.098-1.189-19.597-2.941-27.91-5.194c-4.772-1.29-9.154-2.744-13.033-4.355
								c-1.799-0.744-3.392-1.818-4.721-3.131c-2.56-2.534-4.147-5.969-4.327-9.682c3.164,1.45,6.496,2.797,9.957,4.031
								c6.165,2.197,12.762,4.058,19.65,5.582c9.185,2.035,18.888,3.473,28.769,4.331c4.109,0.355,8.257,0.607,12.404,0.762
								c9.674,0.361,19.391,0.175,28.831-0.535c10.251-0.777,20.182-2.181,29.398-4.201
								C391.651,275.436,401.946,272.007,410.404,267.666z"/>
						</g>
					</g>
				</g>
				<path style="opacity:0.2;fill:#FFEAA5;" d="M307.129,251.206l-26.271,26.369l-7.527,7.555c-4.772-1.29-9.154-2.744-13.033-4.355
					c-1.799-0.744-3.392-1.818-4.721-3.131l5.63-5.651l20.662-20.739L307.129,251.206z"/>
				<path style="opacity:0.2;fill:#FFEAA5;" d="M410.384,251.014l0.007,3.957l-22.553,22.637l-10.499,10.451
					c-2.836,0.579-5.742,1.093-8.707,1.543c-6.521,0.986-13.325,1.676-20.242,2.084l10.05-9.876l30.637-30.756L410.384,251.014z"/>
				<path style="opacity:0.2;fill:#FFEAA5;" d="M353.457,251.12l-31.426,31.548l-8.753,8.786c-4.077-0.29-8.1-0.667-12.036-1.131
					l8.386-8.417l30.648-30.762L353.457,251.12z"/>
			</g>
			<g>
				<g>
					<path style="fill:#FFEAA5;" d="M410.384,250.754c0.022,11.683-35.592,21.221-79.554,21.303
						c-43.957,0.082-79.61-9.323-79.632-21.007c-0.001-0.262,0.015-0.524,0.058-0.786c1.527-11.322,36.524-20.437,79.495-20.517
						c42.971-0.08,78.002,8.905,79.571,20.221C410.366,250.23,410.383,250.492,410.384,250.754z"/>
					<path style="fill:#FF901E;" d="M394.407,250.783c0.001,0.259-0.026,0.519-0.061,0.776c-1.519,8.968-29.421,16.187-63.524,16.25
						c-34.102,0.064-62.031-7.052-63.584-16.014c-0.036-0.257-0.063-0.517-0.064-0.776c-0.017-9.324,28.505-16.961,63.584-17.027
						C365.838,233.928,394.389,241.46,394.407,250.783z"/>
					<path style="fill:#FDB748;" d="M394.346,251.559c-1.519,8.968-29.421,16.187-63.524,16.25
						c-0.763,0.001-1.518-0.002-2.272-0.008c-7.607-0.057-14.877-0.47-21.589-1.182c-6.712-0.712-12.856-1.72-18.202-2.965
						c-1.359-0.316-2.664-0.646-3.925-0.993c-5.701-1.577-10.267-3.447-13.316-5.522c-0.738-0.496-1.387-1.007-1.938-1.525
						c-1.316-1.222-2.108-2.502-2.342-3.82c1.519-8.968,29.421-16.189,63.524-16.253c4.314-0.008,8.53,0.1,12.614,0.311
						c2.077,0.107,4.128,0.242,6.134,0.404c8.194,0.657,15.688,1.745,22.108,3.165c1.385,0.306,2.726,0.63,4.014,0.969
						c5,1.312,9.183,2.845,12.32,4.54c3.056,1.653,5.119,3.456,5.993,5.358C394.14,250.708,394.274,251.133,394.346,251.559z"/>
					<path style="opacity:0.2;fill:#FFEAA5;" d="M393.944,250.291l-65.395,17.511c-7.607-0.057-14.877-0.47-21.589-1.182
						l80.991-21.688C391.008,246.585,393.071,248.389,393.944,250.291z"/>
					<path style="opacity:0.2;fill:#FFEAA5;" d="M349.51,236.259l-77.992,20.883c-0.738-0.496-1.387-1.007-1.938-1.525
						l73.796-19.761C345.453,235.962,347.504,236.097,349.51,236.259z"/>
					<path style="opacity:0.2;fill:#FFEAA5;" d="M375.632,240.393l-86.873,23.263c-1.359-0.316-2.664-0.646-3.925-0.993
						l86.784-23.239C373.003,239.73,374.344,240.053,375.632,240.393z"/>
					<g>
						<path style="fill:#FF5E00;" d="M363.321,243.803l-21.084,0.039c1.839,0.748,3.343,1.648,4.147,2.72l16.942-0.031l0.006,3.223
							l-16.802,0.031c-2.037,3.126-10.365,4.825-16.708,5.518c-1.754,0.194-3.647,0.285-5.541,0.288l-8.555,0.016l33.836,8.926
							l-15.823,0.029l-33.835-8.926l-0.006-3.224l19.75-0.037c6.4-0.012,11.949-1.071,14.176-2.568l-32.065,0.06l-0.006-3.223
							l32.046-0.06c-2.046-1.539-6.526-2.358-9.008-2.711l-23.043,0.043l-0.006-3.223l61.573-0.115L363.321,243.803z"/>
						<path style="fill:#FF8400;" d="M363.319,243.12l-21.084,0.039c1.839,0.748,3.343,1.648,4.147,2.72l16.942-0.031l0.006,3.223
							l-16.802,0.031c-2.037,3.126-10.365,4.825-16.708,5.519c-1.754,0.194-3.647,0.285-5.541,0.288l-8.555,0.016l33.835,8.926
							l-15.823,0.03l-33.835-8.926l-0.006-3.223l19.75-0.037c6.4-0.012,11.949-1.071,14.176-2.568l-32.065,0.06l-0.006-3.223
							l32.046-0.06c-2.046-1.538-6.526-2.358-9.008-2.711l-23.043,0.043l-0.006-3.224l61.573-0.115L363.319,243.12z"/>
					</g>
				</g>
			</g>
		</g>
		<g>
			<g>
				<g>
					<path style="fill:#FDB748;" d="M428.709,226.597l0.03,16.159c0,0.162-0.005,0.33-0.01,0.493
						c-0.168,5.522-3.429,10.519-8.475,12.818c-7.075,3.223-15.45,5.729-24.59,7.576c-2.836,0.579-5.742,1.093-8.707,1.543
						c-6.521,0.987-13.325,1.676-20.242,2.084c-2.447,0.145-4.904,0.253-7.372,0.328c-9.267,0.277-18.638,0.078-27.739-0.56
						c-4.077-0.29-8.1-0.667-12.036-1.131c-10.098-1.188-19.597-2.941-27.91-5.194c-4.772-1.29-9.154-2.744-13.033-4.355
						c-1.799-0.744-3.392-1.818-4.721-3.131c-2.56-2.534-4.147-5.969-4.327-9.682c-0.017-0.233-0.023-0.465-0.023-0.698
						l-0.03-15.953L428.709,226.597z"/>
				</g>
				<g>
					<g>
						<g>
							<path style="fill:#FF901E;" d="M428.729,243.249c-0.168,5.522-3.429,10.519-8.475,12.818
								c-9.271,4.224-20.763,7.217-33.297,9.118c-8.821,1.332-18.163,2.123-27.615,2.412c-9.267,0.277-18.638,0.078-27.739-0.56
								c-4.077-0.29-8.1-0.667-12.036-1.131c-10.098-1.188-19.597-2.941-27.91-5.194c-4.772-1.29-9.154-2.744-13.033-4.355
								c-1.799-0.744-3.392-1.818-4.721-3.131c-2.56-2.534-4.147-5.969-4.327-9.682c3.164,1.45,6.496,2.797,9.957,4.031
								c6.164,2.197,12.762,4.058,19.65,5.583c9.185,2.035,18.888,3.473,28.769,4.331c4.109,0.355,8.257,0.607,12.404,0.762
								c9.674,0.361,19.391,0.175,28.831-0.535c10.251-0.777,20.182-2.181,29.398-4.201
								C409.975,251.02,420.27,247.59,428.729,243.249z"/>
						</g>
					</g>
				</g>
				<path style="opacity:0.2;fill:#FFEAA5;" d="M325.454,226.789l-26.271,26.369l-7.527,7.555c-4.772-1.29-9.154-2.744-13.033-4.355
					c-1.799-0.744-3.392-1.818-4.721-3.131l5.63-5.651l20.662-20.739L325.454,226.789z"/>
				<path style="opacity:0.2;fill:#FFEAA5;" d="M428.709,226.597l0.007,3.957l-22.553,22.637l-10.499,10.451
					c-2.836,0.579-5.742,1.093-8.707,1.543c-6.521,0.987-13.325,1.676-20.242,2.084l10.051-9.876l30.637-30.756L428.709,226.597z"/>
				<path style="opacity:0.2;fill:#FFEAA5;" d="M371.782,226.703l-31.426,31.548l-8.753,8.786c-4.077-0.29-8.1-0.667-12.036-1.131
					l8.386-8.417l30.648-30.762L371.782,226.703z"/>
			</g>
			<g>
				<g>
					<path style="fill:#FFEAA5;" d="M428.708,226.337c0.022,11.683-35.591,21.221-79.553,21.303
						c-43.957,0.082-79.611-9.324-79.632-21.007c-0.001-0.262,0.015-0.524,0.058-0.786c1.527-11.322,36.524-20.437,79.496-20.517
						c42.971-0.08,78.002,8.905,79.571,20.221C428.691,225.813,428.708,226.075,428.708,226.337z"/>
					<path style="fill:#FF901E;" d="M412.731,226.366c0.001,0.259-0.026,0.519-0.061,0.776c-1.519,8.968-29.421,16.187-63.524,16.25
						c-34.102,0.063-62.031-7.052-63.584-16.014c-0.036-0.257-0.063-0.517-0.063-0.776c-0.017-9.324,28.505-16.961,63.584-17.027
						C384.163,209.511,412.714,217.043,412.731,226.366z"/>
					<path style="fill:#FDB748;" d="M412.67,227.143c-1.519,8.968-29.421,16.187-63.524,16.25c-0.763,0.001-1.518-0.002-2.272-0.008
						c-7.607-0.057-14.878-0.47-21.589-1.182c-6.712-0.712-12.856-1.72-18.202-2.965c-1.358-0.316-2.664-0.646-3.925-0.993
						c-5.701-1.577-10.267-3.447-13.316-5.522c-0.738-0.496-1.387-1.007-1.938-1.525c-1.316-1.222-2.108-2.502-2.342-3.82
						c1.519-8.968,29.421-16.189,63.524-16.253c4.314-0.008,8.53,0.1,12.614,0.311c2.077,0.107,4.128,0.242,6.134,0.404
						c8.194,0.657,15.688,1.745,22.108,3.165c1.385,0.307,2.726,0.63,4.014,0.969c5,1.312,9.183,2.845,12.32,4.54
						c3.056,1.653,5.119,3.456,5.993,5.358C412.465,226.291,412.599,226.716,412.67,227.143z"/>
					<path style="opacity:0.2;fill:#FFEAA5;" d="M412.269,225.874l-65.394,17.511c-7.607-0.057-14.878-0.47-21.589-1.182
						l80.991-21.688C409.333,222.169,411.395,223.972,412.269,225.874z"/>
					<path style="opacity:0.2;fill:#FFEAA5;" d="M367.835,211.842l-77.992,20.882c-0.738-0.496-1.387-1.007-1.938-1.525
						l73.796-19.761C363.778,211.545,365.828,211.68,367.835,211.842z"/>
					<path style="opacity:0.2;fill:#FFEAA5;" d="M393.956,215.976l-86.873,23.263c-1.358-0.316-2.664-0.646-3.925-0.993
						l86.784-23.239C391.328,215.313,392.669,215.636,393.956,215.976z"/>
					<g>
						<path style="fill:#FF5E00;" d="M381.645,219.387l-21.084,0.039c1.839,0.748,3.343,1.648,4.147,2.72l16.942-0.031l0.006,3.223
							l-16.802,0.031c-2.037,3.126-10.365,4.825-16.708,5.518c-1.754,0.194-3.647,0.285-5.541,0.288l-8.555,0.016l33.835,8.926
							l-15.822,0.029l-33.836-8.926l-0.006-3.224l19.75-0.037c6.4-0.012,11.949-1.071,14.176-2.568l-32.065,0.06l-0.006-3.223
							l32.046-0.06c-2.046-1.539-6.526-2.358-9.008-2.711l-23.043,0.043l-0.006-3.223l61.573-0.115L381.645,219.387z"/>
						<path style="fill:#FF8400;" d="M381.644,218.704l-21.084,0.039c1.839,0.748,3.343,1.648,4.147,2.72l16.942-0.032l0.006,3.223
							l-16.802,0.031c-2.037,3.126-10.365,4.825-16.708,5.519c-1.754,0.194-3.647,0.285-5.541,0.288l-8.555,0.016l33.836,8.926
							l-15.823,0.029l-33.835-8.926l-0.006-3.223l19.75-0.037c6.4-0.012,11.949-1.071,14.176-2.568l-32.065,0.06l-0.006-3.223
							l32.046-0.06c-2.046-1.538-6.526-2.358-9.008-2.711l-23.043,0.043l-0.006-3.223l61.573-0.115L381.644,218.704z"/>
					</g>
				</g>
			</g>
		</g>
		<g>
			<g>
				<g>
					<path style="fill:#FDB748;" d="M451.152,200.709l0.03,16.159c0,0.162-0.005,0.33-0.01,0.493
						c-0.168,5.522-3.429,10.519-8.475,12.818c-7.075,3.223-15.45,5.729-24.59,7.576c-2.836,0.579-5.741,1.093-8.707,1.543
						c-6.521,0.986-13.325,1.676-20.242,2.084c-2.447,0.145-4.904,0.253-7.372,0.328c-9.267,0.277-18.638,0.078-27.739-0.56
						c-4.077-0.29-8.1-0.667-12.036-1.131c-10.098-1.189-19.597-2.941-27.91-5.194c-4.772-1.29-9.154-2.744-13.033-4.355
						c-1.799-0.744-3.392-1.818-4.721-3.131c-2.56-2.534-4.147-5.969-4.327-9.682c-0.017-0.233-0.023-0.465-0.023-0.698
						l-0.03-15.953L451.152,200.709z"/>
				</g>
				<g>
					<g>
						<g>
							<path style="fill:#FF901E;" d="M451.172,217.361c-0.168,5.522-3.429,10.519-8.475,12.818
								c-9.271,4.223-20.763,7.217-33.297,9.119c-8.821,1.332-18.163,2.123-27.615,2.412c-9.267,0.277-18.638,0.078-27.739-0.56
								c-4.077-0.29-8.1-0.667-12.036-1.131c-10.098-1.189-19.597-2.941-27.91-5.194c-4.772-1.29-9.154-2.744-13.033-4.355
								c-1.799-0.744-3.392-1.818-4.721-3.131c-2.56-2.534-4.147-5.969-4.327-9.682c3.164,1.45,6.496,2.798,9.957,4.031
								c6.164,2.197,12.762,4.058,19.65,5.582c9.185,2.035,18.888,3.473,28.77,4.331c4.109,0.355,8.257,0.607,12.404,0.762
								c9.674,0.361,19.391,0.175,28.831-0.535c10.251-0.777,20.182-2.181,29.398-4.201
								C432.418,225.131,442.714,221.702,451.172,217.361z"/>
						</g>
					</g>
				</g>
				<path style="opacity:0.2;fill:#FFEAA5;" d="M347.897,200.901l-26.271,26.369l-7.527,7.555c-4.772-1.29-9.154-2.744-13.033-4.355
					c-1.799-0.744-3.392-1.818-4.721-3.131l5.63-5.651l20.662-20.739L347.897,200.901z"/>
				<path style="opacity:0.2;fill:#FFEAA5;" d="M451.152,200.709l0.007,3.957l-22.553,22.637l-10.499,10.451
					c-2.836,0.579-5.741,1.093-8.707,1.543c-6.521,0.986-13.325,1.676-20.242,2.084l10.051-9.876l30.637-30.756L451.152,200.709z"/>
				<path style="opacity:0.2;fill:#FFEAA5;" d="M394.225,200.815l-31.426,31.548l-8.753,8.786c-4.077-0.29-8.1-0.667-12.036-1.131
					l8.386-8.417l30.647-30.762L394.225,200.815z"/>
			</g>
			<g>
				<g>
					<path style="fill:#FFEAA5;" d="M451.151,200.449c0.022,11.683-35.591,21.221-79.553,21.303
						c-43.957,0.082-79.611-9.324-79.632-21.007c-0.001-0.262,0.015-0.524,0.058-0.786c1.527-11.322,36.524-20.437,79.495-20.517
						c42.971-0.08,78.002,8.905,79.571,20.221C451.134,199.925,451.151,200.187,451.151,200.449z"/>
					<path style="fill:#FF901E;" d="M435.174,200.478c0,0.26-0.026,0.519-0.061,0.776c-1.519,8.968-29.421,16.187-63.524,16.25
						c-34.102,0.064-62.031-7.052-63.584-16.014c-0.036-0.257-0.063-0.517-0.064-0.776c-0.017-9.324,28.505-16.961,63.584-17.027
						C406.606,183.623,435.157,191.155,435.174,200.478z"/>
					<path style="fill:#FDB748;" d="M435.114,201.255c-1.519,8.968-29.421,16.187-63.524,16.25
						c-0.763,0.001-1.518-0.002-2.272-0.008c-7.607-0.057-14.878-0.47-21.589-1.182c-6.712-0.712-12.856-1.72-18.202-2.965
						c-1.358-0.316-2.664-0.646-3.925-0.993c-5.701-1.577-10.267-3.447-13.316-5.522c-0.738-0.496-1.387-1.007-1.938-1.525
						c-1.316-1.222-2.108-2.501-2.342-3.82c1.519-8.968,29.421-16.189,63.524-16.253c4.314-0.008,8.53,0.1,12.614,0.312
						c2.077,0.107,4.128,0.242,6.134,0.404c8.194,0.657,15.687,1.745,22.108,3.165c1.385,0.306,2.726,0.63,4.014,0.969
						c5,1.312,9.183,2.845,12.32,4.54c3.056,1.653,5.119,3.456,5.993,5.358C434.908,200.403,435.042,200.828,435.114,201.255z"/>
					<path style="opacity:0.2;fill:#FFEAA5;" d="M434.712,199.986l-65.394,17.511c-7.607-0.057-14.878-0.47-21.589-1.182
						l80.991-21.688C431.776,196.281,433.839,198.084,434.712,199.986z"/>
					<path style="opacity:0.2;fill:#FFEAA5;" d="M390.278,185.954l-77.992,20.882c-0.738-0.496-1.387-1.007-1.938-1.525
						l73.796-19.761C386.221,185.657,388.272,185.792,390.278,185.954z"/>
					<path style="opacity:0.2;fill:#FFEAA5;" d="M416.4,190.088l-86.873,23.263c-1.358-0.316-2.664-0.646-3.925-0.993l86.784-23.239
						C413.771,189.425,415.112,189.748,416.4,190.088z"/>
					<g>
						<path style="fill:#FF5E00;" d="M404.088,193.498l-21.084,0.039c1.839,0.748,3.343,1.648,4.147,2.72l16.942-0.032l0.006,3.223
							l-16.802,0.031c-2.037,3.126-10.365,4.825-16.708,5.518c-1.754,0.194-3.647,0.285-5.541,0.288l-8.555,0.016l33.836,8.926
							l-15.823,0.029l-33.835-8.926l-0.006-3.223l19.75-0.037c6.4-0.012,11.949-1.071,14.176-2.568l-32.065,0.06l-0.006-3.223
							l32.046-0.06c-2.046-1.538-6.526-2.358-9.008-2.711l-23.043,0.043l-0.006-3.224l61.573-0.115L404.088,193.498z"/>
						<path style="fill:#FF8400;" d="M404.087,192.816l-21.084,0.039c1.839,0.748,3.343,1.648,4.147,2.72l16.942-0.031l0.006,3.223
							l-16.802,0.031c-2.037,3.126-10.365,4.825-16.708,5.518c-1.754,0.194-3.647,0.285-5.541,0.288l-8.555,0.016l33.835,8.926
							l-15.822,0.029l-33.836-8.926l-0.006-3.224l19.75-0.037c6.4-0.012,11.949-1.071,14.176-2.568l-32.065,0.06l-0.006-3.224
							l32.046-0.06c-2.046-1.539-6.526-2.358-9.008-2.711l-23.043,0.043l-0.006-3.223l61.573-0.115L404.087,192.816z"/>
					</g>
				</g>
			</g>
		</g>
	</g>
	<g>
		<g>
			<g>
				<g>
					<g>
						<path style="fill:#FDB748;" d="M244.536,365.854v16.801c0,0.169-0.006,0.343-0.011,0.512
							c-0.186,5.741-3.585,10.931-8.837,13.312c-7.362,3.338-16.075,5.927-25.582,7.829c-2.949,0.597-5.972,1.126-9.056,1.587
							c-6.783,1.013-13.858,1.717-21.051,2.128c-2.544,0.146-5.1,0.253-7.666,0.326c-9.636,0.27-19.379,0.045-28.841-0.636
							c-4.238-0.31-8.42-0.709-12.512-1.199c-10.497-1.255-20.37-3.096-29.01-5.454c-4.959-1.351-9.512-2.871-13.543-4.553
							c-1.869-0.777-3.523-1.897-4.902-3.265c-2.657-2.64-4.3-6.214-4.48-10.075c-0.017-0.242-0.023-0.484-0.023-0.726v-16.588
							H244.536z"/>
					</g>
					<g>
						<g>
							<g>
								<path style="fill:#FF901E;" d="M244.524,383.168c-0.186,5.741-3.585,10.931-8.837,13.312
									c-9.648,4.374-21.603,7.464-34.639,9.417c-9.175,1.368-18.89,2.173-28.717,2.454c-9.636,0.27-19.379,0.045-28.841-0.636
									c-4.238-0.31-8.42-0.709-12.512-1.199c-10.497-1.255-20.37-3.096-29.01-5.454c-4.959-1.351-9.512-2.871-13.543-4.553
									c-1.869-0.777-3.523-1.897-4.902-3.265c-2.657-2.64-4.3-6.214-4.48-10.075c3.287,1.514,6.749,2.921,10.345,4.21
									c6.405,2.297,13.261,4.244,20.421,5.842c9.546,2.133,19.633,3.647,29.905,4.559c4.272,0.377,8.584,0.647,12.895,0.816
									c10.058,0.394,20.162,0.22,29.978-0.501c10.661-0.788,20.989-2.229,30.575-4.311
									C225.01,391.211,235.721,387.665,244.524,383.168z"/>
							</g>
						</g>
					</g>
					<path style="opacity:0.2;fill:#FFEAA5;" d="M137.175,365.854l-27.367,27.366l-7.841,7.841
						c-4.959-1.351-9.512-2.871-13.543-4.553c-1.869-0.777-3.523-1.897-4.902-3.265l5.865-5.865l21.524-21.524H137.175z"/>
					<path style="opacity:0.2;fill:#FFEAA5;" d="M244.536,365.854v4.115l-23.494,23.494l-10.936,10.846
						c-2.949,0.597-5.972,1.126-9.056,1.587c-6.783,1.013-13.858,1.717-21.051,2.128l10.469-10.25l31.914-31.92H244.536z"/>
					<path style="opacity:0.2;fill:#FFEAA5;" d="M185.345,365.854l-32.736,32.742l-9.118,9.118c-4.238-0.31-8.42-0.709-12.512-1.199
						l8.736-8.736l31.926-31.926H185.345z"/>
				</g>
				<g>
					<g>
						<path style="fill:#FFEAA5;" d="M244.536,365.583c0,12.148-37.048,21.996-82.758,21.996c-45.705,0-82.758-9.848-82.758-21.996
							c0-0.272,0.017-0.545,0.062-0.817c1.61-11.769,38.016-21.179,82.696-21.179c44.68,0,81.086,9.41,82.696,21.179
							C244.519,365.039,244.536,365.311,244.536,365.583z"/>
						<path style="fill:#FF901E;" d="M227.923,365.583c0,0.27-0.028,0.54-0.065,0.807c-1.597,9.321-30.622,16.774-66.081,16.774
							s-64.484-7.452-66.081-16.774c-0.037-0.267-0.064-0.537-0.064-0.807c0-9.694,29.672-17.581,66.145-17.581
							S227.923,355.889,227.923,365.583z"/>
						<path style="fill:#FDB748;" d="M227.859,366.39c-1.597,9.321-30.622,16.774-66.081,16.774c-0.794,0-1.578-0.005-2.363-0.012
							c-7.909-0.074-15.468-0.518-22.445-1.271c-6.977-0.753-13.364-1.813-18.92-3.118c-1.412-0.331-2.769-0.677-4.079-1.04
							c-5.925-1.651-10.669-3.603-13.834-5.767c-0.766-0.517-1.44-1.05-2.012-1.589c-1.366-1.273-2.187-2.605-2.427-3.976
							c1.597-9.321,30.622-16.776,66.081-16.776c4.485,0,8.869,0.12,13.115,0.348c2.16,0.115,4.292,0.26,6.377,0.432
							c8.518,0.699,16.308,1.845,22.98,3.334c1.44,0.321,2.833,0.66,4.172,1.016c5.196,1.374,9.543,2.975,12.801,4.744
							c3.175,1.724,5.316,3.603,6.22,5.583C227.646,365.505,227.785,365.946,227.859,366.39z"/>
						<path style="opacity:0.2;fill:#FFEAA5;" d="M227.443,365.071l-68.029,18.081c-7.909-0.074-15.468-0.518-22.445-1.271
							l84.253-22.393C224.398,361.212,226.539,363.091,227.443,365.071z"/>
						<path style="opacity:0.2;fill:#FFEAA5;" d="M181.27,350.394l-81.134,21.562c-0.766-0.517-1.44-1.05-2.012-1.589l76.768-20.404
							C177.052,350.078,179.184,350.223,181.27,350.394z"/>
						<path style="opacity:0.2;fill:#FFEAA5;" d="M208.422,354.743l-90.372,24.02c-1.412-0.331-2.769-0.677-4.079-1.04l90.28-23.995
							C205.69,354.049,207.084,354.388,208.422,354.743z"/>
						<g>
							<path style="fill:#FF5E00;" d="M195.615,358.266h-21.923c1.911,0.781,3.473,1.72,4.307,2.836h17.616v3.352h-17.47
								c-2.124,3.246-10.787,4.997-17.383,5.706c-1.824,0.199-3.793,0.289-5.762,0.289h-8.895l35.164,9.346h-16.452l-35.163-9.346
								v-3.352h20.535c6.654,0,12.426-1.091,14.744-2.643h-33.34v-3.352h33.32c-2.124-1.604-6.781-2.465-9.361-2.836h-23.96v-3.352
								h64.022V358.266z"/>
							<path style="fill:#FF8400;" d="M195.615,357.556h-21.923c1.911,0.781,3.473,1.72,4.307,2.836h17.616v3.352h-17.47
								c-2.124,3.246-10.787,4.997-17.383,5.706c-1.824,0.198-3.793,0.289-5.762,0.289h-8.895l35.164,9.346h-16.452l-35.163-9.346
								v-3.352h20.535c6.654,0,12.426-1.09,14.744-2.643h-33.34v-3.352h33.32c-2.124-1.604-6.781-2.465-9.361-2.836h-23.96v-3.352
								h64.022V357.556z"/>
						</g>
					</g>
				</g>
			</g>
			<g>
				<g>
					<g>
						<path style="fill:#FDB748;" d="M244.536,340.502v16.802c0,0.169-0.006,0.343-0.011,0.512
							c-0.186,5.741-3.585,10.931-8.837,13.312c-7.362,3.338-16.075,5.927-25.582,7.829c-2.949,0.597-5.972,1.126-9.056,1.587
							c-6.783,1.013-13.858,1.717-21.051,2.128c-2.544,0.146-5.1,0.253-7.666,0.327c-9.636,0.27-19.379,0.045-28.841-0.636
							c-4.238-0.309-8.42-0.709-12.512-1.199c-10.497-1.255-20.37-3.096-29.01-5.454c-4.959-1.351-9.512-2.871-13.543-4.554
							c-1.869-0.777-3.523-1.897-4.902-3.265c-2.657-2.64-4.3-6.214-4.48-10.075c-0.017-0.242-0.023-0.484-0.023-0.726v-16.588
							H244.536z"/>
					</g>
					<g>
						<g>
							<g>
								<path style="fill:#FF901E;" d="M244.524,357.816c-0.186,5.741-3.585,10.931-8.837,13.312
									c-9.648,4.373-21.603,7.464-34.639,9.417c-9.175,1.368-18.89,2.173-28.717,2.454c-9.636,0.27-19.379,0.045-28.841-0.636
									c-4.238-0.309-8.42-0.709-12.512-1.199c-10.497-1.255-20.37-3.096-29.01-5.454c-4.959-1.351-9.512-2.871-13.543-4.554
									c-1.869-0.777-3.523-1.897-4.902-3.265c-2.657-2.64-4.3-6.214-4.48-10.075c3.287,1.514,6.749,2.921,10.345,4.21
									c6.405,2.296,13.261,4.244,20.421,5.842c9.546,2.133,19.633,3.647,29.905,4.559c4.272,0.377,8.584,0.647,12.895,0.816
									c10.058,0.394,20.162,0.219,29.978-0.501c10.661-0.788,20.989-2.229,30.575-4.311
									C225.01,365.859,235.721,362.313,244.524,357.816z"/>
							</g>
						</g>
					</g>
					<path style="opacity:0.2;fill:#FFEAA5;" d="M137.175,340.502l-27.367,27.367l-7.841,7.841
						c-4.959-1.351-9.512-2.871-13.543-4.554c-1.869-0.777-3.523-1.897-4.902-3.265l5.865-5.865l21.524-21.524H137.175z"/>
					<path style="opacity:0.2;fill:#FFEAA5;" d="M244.536,340.502v4.115l-23.494,23.494l-10.936,10.846
						c-2.949,0.597-5.972,1.126-9.056,1.587c-6.783,1.013-13.858,1.717-21.051,2.128l10.469-10.25l31.914-31.92H244.536z"/>
					<path style="opacity:0.2;fill:#FFEAA5;" d="M185.345,340.502l-32.736,32.742l-9.118,9.118
						c-4.238-0.309-8.42-0.709-12.512-1.199l8.736-8.736l31.926-31.926H185.345z"/>
				</g>
				<g>
					<g>
						<path style="fill:#FFEAA5;" d="M244.536,340.231c0,12.148-37.048,21.996-82.758,21.996c-45.705,0-82.758-9.848-82.758-21.996
							c0-0.272,0.017-0.545,0.062-0.817c1.61-11.769,38.016-21.179,82.696-21.179c44.68,0,81.086,9.41,82.696,21.179
							C244.519,339.686,244.536,339.959,244.536,340.231z"/>
						<path style="fill:#FF901E;" d="M227.923,340.231c0,0.27-0.028,0.54-0.065,0.807c-1.597,9.321-30.622,16.774-66.081,16.774
							s-64.484-7.452-66.081-16.774c-0.037-0.267-0.064-0.537-0.064-0.807c0-9.694,29.672-17.581,66.145-17.581
							S227.923,330.537,227.923,340.231z"/>
						<path style="fill:#FDB748;" d="M227.859,341.038c-1.597,9.321-30.622,16.774-66.081,16.774c-0.794,0-1.578-0.005-2.363-0.012
							c-7.909-0.074-15.468-0.518-22.445-1.271c-6.977-0.753-13.364-1.813-18.92-3.118c-1.412-0.331-2.769-0.677-4.079-1.04
							c-5.925-1.651-10.669-3.603-13.834-5.767c-0.766-0.518-1.44-1.05-2.012-1.59c-1.366-1.273-2.187-2.605-2.427-3.976
							c1.597-9.322,30.622-16.776,66.081-16.776c4.485,0,8.869,0.12,13.115,0.348c2.16,0.115,4.292,0.26,6.377,0.432
							c8.518,0.699,16.308,1.845,22.98,3.334c1.44,0.321,2.833,0.66,4.172,1.016c5.196,1.374,9.543,2.975,12.801,4.744
							c3.175,1.725,5.316,3.603,6.22,5.583C227.646,340.152,227.785,340.594,227.859,341.038z"/>
						<path style="opacity:0.2;fill:#FFEAA5;" d="M227.443,339.718l-68.029,18.081c-7.909-0.074-15.468-0.518-22.445-1.271
							l84.253-22.393C224.398,335.86,226.539,337.739,227.443,339.718z"/>
						<path style="opacity:0.2;fill:#FFEAA5;" d="M181.27,325.042l-81.134,21.562c-0.766-0.518-1.44-1.05-2.012-1.59l76.768-20.404
							C177.052,324.725,179.184,324.87,181.27,325.042z"/>
						<path style="opacity:0.2;fill:#FFEAA5;" d="M208.422,329.391l-90.372,24.02c-1.412-0.331-2.769-0.677-4.079-1.04l90.28-23.995
							C205.69,328.697,207.084,329.035,208.422,329.391z"/>
						<g>
							<path style="fill:#FF5E00;" d="M195.615,332.913h-21.923c1.911,0.781,3.473,1.72,4.307,2.836h17.616v3.352h-17.47
								c-2.124,3.246-10.787,4.997-17.383,5.706c-1.824,0.198-3.793,0.289-5.762,0.289h-8.895l35.164,9.346h-16.452l-35.163-9.346
								v-3.352h20.535c6.654,0,12.426-1.091,14.744-2.643h-33.34v-3.352h33.32c-2.124-1.604-6.781-2.465-9.361-2.836h-23.96v-3.352
								h64.022V332.913z"/>
							<path style="fill:#FF8400;" d="M195.615,332.203h-21.923c1.911,0.781,3.473,1.72,4.307,2.836h17.616v3.352h-17.47
								c-2.124,3.246-10.787,4.997-17.383,5.706c-1.824,0.199-3.793,0.289-5.762,0.289h-8.895l35.164,9.346h-16.452l-35.163-9.346
								v-3.352h20.535c6.654,0,12.426-1.091,14.744-2.643h-33.34v-3.352h33.32c-2.124-1.604-6.781-2.465-9.361-2.836h-23.96v-3.352
								h64.022V332.203z"/>
						</g>
					</g>
				</g>
			</g>
			<g>
				<g>
					<g>
						<path style="fill:#FDB748;" d="M244.536,313.628v16.802c0,0.169-0.006,0.343-0.011,0.512
							c-0.186,5.741-3.585,10.931-8.837,13.312c-7.362,3.338-16.075,5.927-25.582,7.829c-2.949,0.597-5.972,1.126-9.056,1.587
							c-6.783,1.013-13.858,1.717-21.051,2.128c-2.544,0.146-5.1,0.253-7.666,0.326c-9.636,0.27-19.379,0.045-28.841-0.636
							c-4.238-0.31-8.42-0.709-12.512-1.199c-10.497-1.255-20.37-3.096-29.01-5.454c-4.959-1.351-9.512-2.871-13.543-4.554
							c-1.869-0.777-3.523-1.897-4.902-3.265c-2.657-2.64-4.3-6.214-4.48-10.075c-0.017-0.242-0.023-0.484-0.023-0.726v-16.588
							H244.536z"/>
					</g>
					<g>
						<g>
							<g>
								<path style="fill:#FF901E;" d="M244.524,330.942c-0.186,5.741-3.585,10.931-8.837,13.312
									c-9.648,4.374-21.603,7.464-34.639,9.417c-9.175,1.368-18.89,2.173-28.717,2.454c-9.636,0.27-19.379,0.045-28.841-0.636
									c-4.238-0.31-8.42-0.709-12.512-1.199c-10.497-1.255-20.37-3.096-29.01-5.454c-4.959-1.351-9.512-2.871-13.543-4.554
									c-1.869-0.777-3.523-1.897-4.902-3.265c-2.657-2.64-4.3-6.214-4.48-10.075c3.287,1.514,6.749,2.921,10.345,4.21
									c6.405,2.297,13.261,4.244,20.421,5.842c9.546,2.133,19.633,3.647,29.905,4.559c4.272,0.377,8.584,0.647,12.895,0.816
									c10.058,0.394,20.162,0.219,29.978-0.501c10.661-0.788,20.989-2.229,30.575-4.311
									C225.01,338.985,235.721,335.439,244.524,330.942z"/>
							</g>
						</g>
					</g>
					<path style="opacity:0.2;fill:#FFEAA5;" d="M137.175,313.628l-27.367,27.366l-7.841,7.841
						c-4.959-1.351-9.512-2.871-13.543-4.554c-1.869-0.777-3.523-1.897-4.902-3.265l5.865-5.865l21.524-21.524H137.175z"/>
					<path style="opacity:0.2;fill:#FFEAA5;" d="M244.536,313.628v4.115l-23.494,23.494l-10.936,10.846
						c-2.949,0.597-5.972,1.126-9.056,1.587c-6.783,1.013-13.858,1.717-21.051,2.128l10.469-10.25l31.914-31.92H244.536z"/>
					<path style="opacity:0.2;fill:#FFEAA5;" d="M185.345,313.628l-32.736,32.742l-9.118,9.118c-4.238-0.31-8.42-0.709-12.512-1.199
						l8.736-8.736l31.926-31.926H185.345z"/>
				</g>
				<g>
					<g>
						<path style="fill:#FFEAA5;" d="M244.536,313.357c0,12.148-37.048,21.996-82.758,21.996c-45.705,0-82.758-9.848-82.758-21.996
							c0-0.272,0.017-0.545,0.062-0.817c1.61-11.769,38.016-21.179,82.696-21.179c44.68,0,81.086,9.41,82.696,21.179
							C244.519,312.813,244.536,313.085,244.536,313.357z"/>
						<path style="fill:#FF901E;" d="M227.923,313.357c0,0.27-0.028,0.54-0.065,0.807c-1.597,9.321-30.622,16.774-66.081,16.774
							s-64.484-7.452-66.081-16.774c-0.037-0.267-0.064-0.537-0.064-0.807c0-9.694,29.672-17.581,66.145-17.581
							S227.923,303.663,227.923,313.357z"/>
						<path style="fill:#FDB748;" d="M227.859,314.164c-1.597,9.321-30.622,16.774-66.081,16.774c-0.794,0-1.578-0.005-2.363-0.012
							c-7.909-0.074-15.468-0.518-22.445-1.271c-6.977-0.753-13.364-1.813-18.92-3.118c-1.412-0.331-2.769-0.677-4.079-1.04
							c-5.925-1.651-10.669-3.603-13.834-5.767c-0.766-0.518-1.44-1.05-2.012-1.59c-1.366-1.273-2.187-2.605-2.427-3.976
							c1.597-9.321,30.622-16.776,66.081-16.776c4.485,0,8.869,0.12,13.115,0.348c2.16,0.115,4.292,0.26,6.377,0.432
							c8.518,0.699,16.308,1.845,22.98,3.334c1.44,0.321,2.833,0.66,4.172,1.016c5.196,1.374,9.543,2.976,12.801,4.744
							c3.175,1.724,5.316,3.603,6.22,5.583C227.646,313.278,227.785,313.72,227.859,314.164z"/>
						<path style="opacity:0.2;fill:#FFEAA5;" d="M227.443,312.844l-68.029,18.081c-7.909-0.074-15.468-0.518-22.445-1.271
							l84.253-22.393C224.398,308.986,226.539,310.865,227.443,312.844z"/>
						<path style="opacity:0.2;fill:#FFEAA5;" d="M181.27,298.168l-81.134,21.562c-0.766-0.518-1.44-1.05-2.012-1.59l76.768-20.404
							C177.052,297.852,179.184,297.996,181.27,298.168z"/>
						<path style="opacity:0.2;fill:#FFEAA5;" d="M208.422,302.517l-90.372,24.02c-1.412-0.331-2.769-0.677-4.079-1.04l90.28-23.995
							C205.69,301.823,207.084,302.161,208.422,302.517z"/>
						<g>
							<path style="fill:#FF5E00;" d="M195.615,306.039h-21.923c1.911,0.781,3.473,1.72,4.307,2.836h17.616v3.352h-17.47
								c-2.124,3.246-10.787,4.997-17.383,5.706c-1.824,0.198-3.793,0.289-5.762,0.289h-8.895l35.164,9.346h-16.452l-35.163-9.346
								v-3.352h20.535c6.654,0,12.426-1.091,14.744-2.643h-33.34v-3.352h33.32c-2.124-1.604-6.781-2.465-9.361-2.836h-23.96v-3.352
								h64.022V306.039z"/>
							<path style="fill:#FF8400;" d="M195.615,305.329h-21.923c1.911,0.781,3.473,1.72,4.307,2.836h17.616v3.352h-17.47
								c-2.124,3.246-10.787,4.997-17.383,5.706c-1.824,0.199-3.793,0.289-5.762,0.289h-8.895l35.164,9.346h-16.452l-35.163-9.346
								v-3.352h20.535c6.654,0,12.426-1.091,14.744-2.643h-33.34v-3.352h33.32c-2.124-1.604-6.781-2.465-9.361-2.836h-23.96v-3.352
								h64.022V305.329z"/>
						</g>
					</g>
				</g>
			</g>
			<g>
				<g>
					<g>
						<path style="fill:#FDB748;" d="M244.536,286.753v16.802c0,0.169-0.006,0.343-0.011,0.512
							c-0.186,5.741-3.585,10.931-8.837,13.312c-7.362,3.338-16.075,5.927-25.582,7.829c-2.949,0.597-5.972,1.126-9.056,1.587
							c-6.783,1.013-13.858,1.717-21.051,2.128c-2.544,0.146-5.1,0.253-7.666,0.327c-9.636,0.27-19.379,0.045-28.841-0.636
							c-4.238-0.31-8.42-0.709-12.512-1.199c-10.497-1.255-20.37-3.096-29.01-5.454c-4.959-1.351-9.512-2.871-13.543-4.554
							c-1.869-0.777-3.523-1.897-4.902-3.265c-2.657-2.64-4.3-6.214-4.48-10.075c-0.017-0.242-0.023-0.484-0.023-0.726v-16.588
							H244.536z"/>
					</g>
					<g>
						<g>
							<g>
								<path style="fill:#FF901E;" d="M244.524,304.066c-0.186,5.741-3.585,10.931-8.837,13.312
									c-9.648,4.374-21.603,7.464-34.639,9.417c-9.175,1.368-18.89,2.173-28.717,2.454c-9.636,0.27-19.379,0.045-28.841-0.636
									c-4.238-0.31-8.42-0.709-12.512-1.199c-10.497-1.255-20.37-3.096-29.01-5.454c-4.959-1.351-9.512-2.871-13.543-4.554
									c-1.869-0.777-3.523-1.897-4.902-3.265c-2.657-2.64-4.3-6.214-4.48-10.075c3.287,1.514,6.749,2.921,10.345,4.21
									c6.405,2.296,13.261,4.244,20.421,5.842c9.546,2.133,19.633,3.647,29.905,4.559c4.272,0.377,8.584,0.647,12.895,0.816
									c10.058,0.394,20.162,0.22,29.978-0.501c10.661-0.788,20.989-2.229,30.575-4.312
									C225.01,312.11,235.721,308.564,244.524,304.066z"/>
							</g>
						</g>
					</g>
					<path style="opacity:0.2;fill:#FFEAA5;" d="M137.175,286.753l-27.367,27.367l-7.841,7.841
						c-4.959-1.351-9.512-2.871-13.543-4.554c-1.869-0.777-3.523-1.897-4.902-3.265l5.865-5.865l21.524-21.524H137.175z"/>
					<path style="opacity:0.2;fill:#FFEAA5;" d="M244.536,286.753v4.115l-23.494,23.494l-10.936,10.846
						c-2.949,0.597-5.972,1.126-9.056,1.587c-6.783,1.013-13.858,1.717-21.051,2.128l10.469-10.25l31.914-31.92H244.536z"/>
					<path style="opacity:0.2;fill:#FFEAA5;" d="M185.345,286.753l-32.736,32.742l-9.118,9.118c-4.238-0.31-8.42-0.709-12.512-1.199
						l8.736-8.736l31.926-31.926H185.345z"/>
				</g>
				<g>
					<g>
						<path style="fill:#FFEAA5;" d="M244.536,286.482c0,12.148-37.048,21.996-82.758,21.996c-45.705,0-82.758-9.848-82.758-21.996
							c0-0.272,0.017-0.545,0.062-0.817c1.61-11.769,38.016-21.179,82.696-21.179c44.68,0,81.086,9.41,82.696,21.179
							C244.519,285.937,244.536,286.21,244.536,286.482z"/>
						<path style="fill:#FF901E;" d="M227.923,286.482c0,0.27-0.028,0.54-0.065,0.807c-1.597,9.321-30.622,16.774-66.081,16.774
							s-64.484-7.452-66.081-16.774c-0.037-0.267-0.064-0.537-0.064-0.807c0-9.694,29.672-17.581,66.145-17.581
							S227.923,276.788,227.923,286.482z"/>
						<path style="fill:#FDB748;" d="M227.859,287.289c-1.597,9.321-30.622,16.774-66.081,16.774c-0.794,0-1.578-0.005-2.363-0.012
							c-7.909-0.074-15.468-0.518-22.445-1.271c-6.977-0.753-13.364-1.813-18.92-3.118c-1.412-0.331-2.769-0.677-4.079-1.04
							c-5.925-1.651-10.669-3.604-13.834-5.767c-0.766-0.518-1.44-1.05-2.012-1.59c-1.366-1.273-2.187-2.605-2.427-3.976
							c1.597-9.322,30.622-16.776,66.081-16.776c4.485,0,8.869,0.12,13.115,0.348c2.16,0.115,4.292,0.26,6.377,0.432
							c8.518,0.699,16.308,1.845,22.98,3.334c1.44,0.321,2.833,0.66,4.172,1.016c5.196,1.374,9.543,2.975,12.801,4.744
							c3.175,1.725,5.316,3.603,6.22,5.583C227.646,286.403,227.785,286.845,227.859,287.289z"/>
						<path style="opacity:0.2;fill:#FFEAA5;" d="M227.443,285.969l-68.029,18.081c-7.909-0.074-15.468-0.518-22.445-1.271
							l84.253-22.394C224.398,282.111,226.539,283.989,227.443,285.969z"/>
						<path style="opacity:0.2;fill:#FFEAA5;" d="M181.27,271.293l-81.134,21.562c-0.766-0.518-1.44-1.05-2.012-1.59l76.768-20.404
							C177.052,270.976,179.184,271.121,181.27,271.293z"/>
						<path style="opacity:0.2;fill:#FFEAA5;" d="M208.422,275.642l-90.372,24.02c-1.412-0.331-2.769-0.677-4.079-1.04l90.28-23.995
							C205.69,274.948,207.084,275.286,208.422,275.642z"/>
						<g>
							<path style="fill:#FF5E00;" d="M195.615,279.164h-21.923c1.911,0.781,3.473,1.72,4.307,2.836h17.616v3.352h-17.47
								c-2.124,3.246-10.787,4.997-17.383,5.706c-1.824,0.199-3.793,0.289-5.762,0.289h-8.895l35.164,9.346h-16.452l-35.163-9.346
								v-3.352h20.535c6.654,0,12.426-1.091,14.744-2.643h-33.34V282h33.32c-2.124-1.604-6.781-2.465-9.361-2.836h-23.96v-3.352
								h64.022V279.164z"/>
							<path style="fill:#FF8400;" d="M195.615,278.454h-21.923c1.911,0.781,3.473,1.72,4.307,2.836h17.616v3.352h-17.47
								c-2.124,3.246-10.787,4.997-17.383,5.706c-1.824,0.198-3.793,0.289-5.762,0.289h-8.895l35.164,9.346h-16.452l-35.163-9.346
								v-3.352h20.535c6.654,0,12.426-1.091,14.744-2.643h-33.34v-3.352h33.32c-2.124-1.604-6.781-2.465-9.361-2.836h-23.96v-3.352
								h64.022V278.454z"/>
						</g>
					</g>
				</g>
			</g>
			<g>
				<g>
					<g>
						<path style="fill:#FDB748;" d="M244.536,261.4v16.802c0,0.169-0.006,0.343-0.011,0.512
							c-0.186,5.741-3.585,10.931-8.837,13.312c-7.362,3.338-16.075,5.927-25.582,7.829c-2.949,0.597-5.972,1.126-9.056,1.587
							c-6.783,1.013-13.858,1.717-21.051,2.128c-2.544,0.146-5.1,0.253-7.666,0.326c-9.636,0.27-19.379,0.045-28.841-0.636
							c-4.238-0.31-8.42-0.709-12.512-1.199c-10.497-1.255-20.37-3.096-29.01-5.454c-4.959-1.351-9.512-2.871-13.543-4.554
							c-1.869-0.777-3.523-1.897-4.902-3.265c-2.657-2.64-4.3-6.214-4.48-10.075c-0.017-0.242-0.023-0.484-0.023-0.726V261.4
							H244.536z"/>
					</g>
					<g>
						<g>
							<g>
								<path style="fill:#FF901E;" d="M244.524,278.714c-0.186,5.741-3.585,10.931-8.837,13.312
									c-9.648,4.373-21.603,7.464-34.639,9.417c-9.175,1.368-18.89,2.173-28.717,2.454c-9.636,0.27-19.379,0.045-28.841-0.636
									c-4.238-0.31-8.42-0.709-12.512-1.199c-10.497-1.255-20.37-3.096-29.01-5.454c-4.959-1.351-9.512-2.871-13.543-4.554
									c-1.869-0.777-3.523-1.897-4.902-3.265c-2.657-2.64-4.3-6.214-4.48-10.075c3.287,1.514,6.749,2.921,10.345,4.21
									c6.405,2.296,13.261,4.244,20.421,5.842c9.546,2.133,19.633,3.647,29.905,4.559c4.272,0.377,8.584,0.647,12.895,0.816
									c10.058,0.394,20.162,0.219,29.978-0.501c10.661-0.788,20.989-2.229,30.575-4.312
									C225.01,286.758,235.721,283.211,244.524,278.714z"/>
							</g>
						</g>
					</g>
					<path style="opacity:0.2;fill:#FFEAA5;" d="M137.175,261.4l-27.367,27.367l-7.841,7.841c-4.959-1.351-9.512-2.871-13.543-4.554
						c-1.869-0.777-3.523-1.897-4.902-3.265l5.865-5.865l21.524-21.524H137.175z"/>
					<path style="opacity:0.2;fill:#FFEAA5;" d="M244.536,261.4v4.115l-23.494,23.494l-10.936,10.846
						c-2.949,0.597-5.972,1.126-9.056,1.587c-6.783,1.013-13.858,1.717-21.051,2.128l10.469-10.25l31.914-31.92H244.536z"/>
					<path style="opacity:0.2;fill:#FFEAA5;" d="M185.345,261.4l-32.736,32.742l-9.118,9.118c-4.238-0.31-8.42-0.709-12.512-1.199
						l8.736-8.736l31.926-31.926H185.345z"/>
				</g>
				<g>
					<g>
						<path style="fill:#FFEAA5;" d="M244.536,261.129c0,12.148-37.048,21.996-82.758,21.996c-45.705,0-82.758-9.848-82.758-21.996
							c0-0.272,0.017-0.544,0.062-0.817c1.61-11.769,38.016-21.179,82.696-21.179c44.68,0,81.086,9.41,82.696,21.179
							C244.519,260.585,244.536,260.857,244.536,261.129z"/>
						<path style="fill:#FF901E;" d="M227.923,261.129c0,0.27-0.028,0.54-0.065,0.807c-1.597,9.321-30.622,16.774-66.081,16.774
							s-64.484-7.452-66.081-16.774c-0.037-0.267-0.064-0.537-0.064-0.807c0-9.694,29.672-17.581,66.145-17.581
							S227.923,251.435,227.923,261.129z"/>
						<path style="fill:#FDB748;" d="M227.859,261.936c-1.597,9.321-30.622,16.774-66.081,16.774c-0.794,0-1.578-0.005-2.363-0.012
							c-7.909-0.074-15.468-0.518-22.445-1.271c-6.977-0.753-13.364-1.813-18.92-3.118c-1.412-0.331-2.769-0.677-4.079-1.04
							c-5.925-1.651-10.669-3.603-13.834-5.767c-0.766-0.518-1.44-1.05-2.012-1.59c-1.366-1.273-2.187-2.605-2.427-3.976
							c1.597-9.321,30.622-16.776,66.081-16.776c4.485,0,8.869,0.12,13.115,0.348c2.16,0.115,4.292,0.26,6.377,0.432
							c8.518,0.699,16.308,1.845,22.98,3.334c1.44,0.321,2.833,0.66,4.172,1.016c5.196,1.374,9.543,2.976,12.801,4.744
							c3.175,1.725,5.316,3.603,6.22,5.583C227.646,261.051,227.785,261.492,227.859,261.936z"/>
						<path style="opacity:0.2;fill:#FFEAA5;" d="M227.443,260.617l-68.029,18.081c-7.909-0.074-15.468-0.518-22.445-1.271
							l84.253-22.393C224.398,256.758,226.539,258.637,227.443,260.617z"/>
						<path style="opacity:0.2;fill:#FFEAA5;" d="M181.27,245.94l-81.134,21.562c-0.766-0.518-1.44-1.05-2.012-1.59l76.768-20.404
							C177.052,245.624,179.184,245.769,181.27,245.94z"/>
						<path style="opacity:0.2;fill:#FFEAA5;" d="M208.422,250.29l-90.372,24.02c-1.412-0.331-2.769-0.677-4.079-1.04l90.28-23.995
							C205.69,249.595,207.084,249.934,208.422,250.29z"/>
						<g>
							<path style="fill:#FF5E00;" d="M195.615,253.812h-21.923c1.911,0.781,3.473,1.72,4.307,2.836h17.616V260h-17.47
								c-2.124,3.246-10.787,4.997-17.383,5.706c-1.824,0.198-3.793,0.289-5.762,0.289h-8.895l35.164,9.346h-16.452l-35.163-9.346
								v-3.352h20.535c6.654,0,12.426-1.091,14.744-2.643h-33.34v-3.352h33.32c-2.124-1.604-6.781-2.465-9.361-2.836h-23.96v-3.352
								h64.022V253.812z"/>
							<path style="fill:#FF8400;" d="M195.615,253.102h-21.923c1.911,0.781,3.473,1.72,4.307,2.836h17.616v3.352h-17.47
								c-2.124,3.246-10.787,4.997-17.383,5.706c-1.824,0.199-3.793,0.289-5.762,0.289h-8.895l35.164,9.346h-16.452l-35.163-9.346
								v-3.352h20.535c6.654,0,12.426-1.091,14.744-2.643h-33.34v-3.352h33.32c-2.124-1.604-6.781-2.465-9.361-2.836h-23.96v-3.352
								h64.022V253.102z"/>
						</g>
					</g>
				</g>
			</g>
			<g>
				<g>
					<g>
						<path style="fill:#FDB748;" d="M244.536,234.526v16.801c0,0.169-0.006,0.343-0.011,0.512
							c-0.186,5.741-3.585,10.931-8.837,13.312c-7.362,3.338-16.075,5.927-25.582,7.829c-2.949,0.597-5.972,1.126-9.056,1.587
							c-6.783,1.013-13.858,1.717-21.051,2.128c-2.544,0.146-5.1,0.253-7.666,0.327c-9.636,0.27-19.379,0.045-28.841-0.636
							c-4.238-0.31-8.42-0.709-12.512-1.199c-10.497-1.255-20.37-3.096-29.01-5.454c-4.959-1.351-9.512-2.871-13.543-4.554
							c-1.869-0.777-3.523-1.897-4.902-3.265c-2.657-2.64-4.3-6.214-4.48-10.075c-0.017-0.242-0.023-0.484-0.023-0.726v-16.588
							H244.536z"/>
					</g>
					<g>
						<g>
							<g>
								<path style="fill:#FF901E;" d="M244.524,251.84c-0.186,5.741-3.585,10.931-8.837,13.312
									c-9.648,4.373-21.603,7.464-34.639,9.417c-9.175,1.368-18.89,2.173-28.717,2.454c-9.636,0.27-19.379,0.045-28.841-0.636
									c-4.238-0.31-8.42-0.709-12.512-1.199c-10.497-1.255-20.37-3.096-29.01-5.454c-4.959-1.351-9.512-2.871-13.543-4.554
									c-1.869-0.777-3.523-1.897-4.902-3.265c-2.657-2.64-4.3-6.214-4.48-10.075c3.287,1.514,6.749,2.921,10.345,4.21
									c6.405,2.296,13.261,4.244,20.421,5.842c9.546,2.133,19.633,3.647,29.905,4.559c4.272,0.377,8.584,0.647,12.895,0.816
									c10.058,0.394,20.162,0.22,29.978-0.501c10.661-0.788,20.989-2.229,30.575-4.312
									C225.01,259.884,235.721,256.337,244.524,251.84z"/>
							</g>
						</g>
					</g>
					<path style="opacity:0.2;fill:#FFEAA5;" d="M137.175,234.526l-27.367,27.367l-7.841,7.841
						c-4.959-1.351-9.512-2.871-13.543-4.554c-1.869-0.777-3.523-1.897-4.902-3.265l5.865-5.865l21.524-21.524H137.175z"/>
					<path style="opacity:0.2;fill:#FFEAA5;" d="M244.536,234.526v4.115l-23.494,23.494l-10.936,10.846
						c-2.949,0.597-5.972,1.126-9.056,1.587c-6.783,1.013-13.858,1.717-21.051,2.128l10.469-10.25l31.914-31.92H244.536z"/>
					<path style="opacity:0.2;fill:#FFEAA5;" d="M185.345,234.526l-32.736,32.742l-9.118,9.118c-4.238-0.31-8.42-0.709-12.512-1.199
						l8.736-8.736l31.926-31.926H185.345z"/>
				</g>
				<g>
					<g>
						<path style="fill:#FFEAA5;" d="M244.536,234.255c0,12.148-37.048,21.996-82.758,21.996c-45.705,0-82.758-9.848-82.758-21.996
							c0-0.272,0.017-0.544,0.062-0.817c1.61-11.769,38.016-21.179,82.696-21.179c44.68,0,81.086,9.41,82.696,21.179
							C244.519,233.711,244.536,233.983,244.536,234.255z"/>
						<path style="fill:#FF901E;" d="M227.923,234.255c0,0.27-0.028,0.54-0.065,0.807c-1.597,9.321-30.622,16.774-66.081,16.774
							s-64.484-7.452-66.081-16.774c-0.037-0.267-0.064-0.537-0.064-0.807c0-9.694,29.672-17.581,66.145-17.581
							S227.923,224.561,227.923,234.255z"/>
						<path style="fill:#FDB748;" d="M227.859,235.062c-1.597,9.321-30.622,16.774-66.081,16.774c-0.794,0-1.578-0.005-2.363-0.012
							c-7.909-0.074-15.468-0.518-22.445-1.271c-6.977-0.753-13.364-1.813-18.92-3.118c-1.412-0.331-2.769-0.677-4.079-1.04
							c-5.925-1.651-10.669-3.604-13.834-5.767c-0.766-0.518-1.44-1.05-2.012-1.59c-1.366-1.273-2.187-2.605-2.427-3.976
							c1.597-9.321,30.622-16.776,66.081-16.776c4.485,0,8.869,0.12,13.115,0.348c2.16,0.115,4.292,0.26,6.377,0.432
							c8.518,0.699,16.308,1.845,22.98,3.334c1.44,0.321,2.833,0.66,4.172,1.016c5.196,1.374,9.543,2.975,12.801,4.744
							c3.175,1.725,5.316,3.603,6.22,5.583C227.646,234.177,227.785,234.618,227.859,235.062z"/>
						<path style="opacity:0.2;fill:#FFEAA5;" d="M227.443,233.743l-68.029,18.081c-7.909-0.074-15.468-0.518-22.445-1.271
							l84.253-22.393C224.398,229.884,226.539,231.763,227.443,233.743z"/>
						<path style="opacity:0.2;fill:#FFEAA5;" d="M181.27,219.066l-81.134,21.562c-0.766-0.518-1.44-1.05-2.012-1.59l76.768-20.404
							C177.052,218.75,179.184,218.895,181.27,219.066z"/>
						<path style="opacity:0.2;fill:#FFEAA5;" d="M208.422,223.416l-90.372,24.02c-1.412-0.331-2.769-0.677-4.079-1.04l90.28-23.995
							C205.69,222.721,207.084,223.06,208.422,223.416z"/>
						<g>
							<path style="fill:#FF5E00;" d="M195.615,226.938h-21.923c1.911,0.781,3.473,1.72,4.307,2.836h17.616v3.352h-17.47
								c-2.124,3.246-10.787,4.997-17.383,5.706c-1.824,0.198-3.793,0.289-5.762,0.289h-8.895l35.164,9.346h-16.452l-35.163-9.346
								v-3.352h20.535c6.654,0,12.426-1.091,14.744-2.643h-33.34v-3.352h33.32c-2.124-1.604-6.781-2.465-9.361-2.836h-23.96v-3.352
								h64.022V226.938z"/>
							<path style="fill:#FF8400;" d="M195.615,226.228h-21.923c1.911,0.781,3.473,1.72,4.307,2.836h17.616v3.352h-17.47
								c-2.124,3.246-10.787,4.997-17.383,5.706c-1.824,0.199-3.793,0.289-5.762,0.289h-8.895l35.164,9.346h-16.452l-35.163-9.346
								v-3.352h20.535c6.654,0,12.426-1.091,14.744-2.643h-33.34v-3.352h33.32c-2.124-1.604-6.781-2.465-9.361-2.836h-23.96v-3.352
								h64.022V226.228z"/>
						</g>
					</g>
				</g>
			</g>
		</g>
		<path style="fill:#FFFFFF;" d="M100.57,229.746c-17.747,2.1-19.45,3.803-21.551,21.551c-2.1-17.747-3.803-19.45-21.55-21.551
			c17.748-2.1,19.45-3.803,21.55-21.551C81.12,225.943,82.823,227.646,100.57,229.746z"/>
	</g>
	<g>
		<g>
			<path style="fill:#FDB748;" d="M354.37,349.982c0,44.438-36.021,80.467-80.467,80.467c-44.438,0-80.467-36.03-80.467-80.467
				c0-0.996,0.018-1.992,0.063-2.988c1.561-43.056,36.963-77.479,80.405-77.479c43.442,0,78.843,34.423,80.405,77.479
				C354.352,347.99,354.37,348.986,354.37,349.982z"/>
			<path style="fill:#FFEAA5;" d="M354.307,346.994c-1.57,43.056-36.963,77.479-80.405,77.479
				c-43.433,0-78.834-34.423-80.405-77.479c1.561-43.056,36.963-77.479,80.405-77.479
				C317.345,269.515,352.746,303.938,354.307,346.994z"/>
			<path style="fill:#FF901E;" d="M338.217,349.982c0,0.987-0.027,1.974-0.063,2.952c-1.553,34.1-29.775,61.362-64.252,61.362
				c-34.477,0-62.699-27.262-64.252-61.362c-0.036-0.978-0.063-1.965-0.063-2.952c0-35.464,28.85-64.315,64.315-64.315
				C309.367,285.668,338.217,314.518,338.217,349.982z"/>
			<path style="fill:#FDB748;" d="M338.155,352.935c-1.553,34.1-29.775,61.362-64.252,61.362c-0.772,0-1.534-0.018-2.297-0.045
				c-7.69-0.269-15.04-1.893-21.824-4.648c-6.784-2.755-12.994-6.632-18.396-11.406c-1.373-1.211-2.692-2.477-3.966-3.805
				c-5.761-6.039-10.374-13.182-13.452-21.097c-0.745-1.893-1.4-3.841-1.956-5.815c-1.328-4.657-2.127-9.53-2.36-14.546
				c1.552-34.1,29.775-61.371,64.252-61.371c4.361,0,8.624,0.44,12.752,1.274c2.1,0.422,4.173,0.951,6.201,1.579
				c8.283,2.557,15.857,6.748,22.344,12.195c1.4,1.175,2.755,2.414,4.056,3.715c5.052,5.025,9.279,10.885,12.447,17.355
				c3.087,6.309,5.169,13.182,6.048,20.424C337.948,349.695,338.083,351.31,338.155,352.935z"/>
			<path style="opacity:0.2;fill:#FFEAA5;" d="M337.751,348.107l-66.146,66.145c-7.69-0.269-15.04-1.893-21.824-4.648l81.921-81.921
				C334.789,333.991,336.871,340.865,337.751,348.107z"/>
			<path style="opacity:0.2;fill:#FFEAA5;" d="M292.855,294.417l-78.888,78.879c-0.745-1.893-1.4-3.841-1.956-5.815l74.644-74.643
				C288.754,293.259,290.827,293.789,292.855,294.417z"/>
			<path style="opacity:0.2;fill:#FFEAA5;" d="M319.256,310.327l-87.871,87.871c-1.373-1.211-2.692-2.477-3.966-3.805l87.781-87.781
				C316.6,307.788,317.955,309.026,319.256,310.327z"/>
			<g>
				<path style="fill:#FF5E00;" d="M306.803,323.213h-21.316c1.858,2.858,3.377,6.291,4.188,10.375h17.128v12.261h-16.987
					c-2.065,11.875-10.488,18.279-16.902,20.872c-1.773,0.726-3.688,1.056-5.603,1.056h-8.649l34.19,34.19h-15.996l-34.19-34.19
					v-12.261h19.967c6.47,0,12.082-3.99,14.336-9.668h-32.417v-12.261h32.398c-2.066-5.867-6.593-9.017-9.102-10.375h-23.297
					v-12.261h62.25V323.213z"/>
				<path style="fill:#FF8400;" d="M306.803,320.615h-21.316c1.858,2.858,3.377,6.291,4.188,10.375h17.128v12.261h-16.987
					c-2.065,11.875-10.488,18.279-16.902,20.873c-1.773,0.726-3.688,1.056-5.603,1.056h-8.649l34.19,34.19h-15.996l-34.19-34.19
					v-12.261h19.967c6.47,0,12.082-3.99,14.336-9.668h-32.417V330.99h32.398c-2.066-5.867-6.593-9.017-9.102-10.375h-23.297v-12.261
					h62.25V320.615z"/>
			</g>
		</g>
		<path style="fill:#FFFFFF;" d="M244.24,405.129c-17.747,2.1-19.45,3.803-21.551,21.551c-2.1-17.748-3.803-19.45-21.55-21.551
			c17.748-2.1,19.45-3.803,21.55-21.551C224.79,401.326,226.493,403.028,244.24,405.129z"/>
		<path style="fill:#FFFFFF;" d="M346.736,282.803c-17.747,2.1-19.45,3.803-21.551,21.551c-2.1-17.747-3.803-19.45-21.55-21.551
			c17.747-2.1,19.45-3.803,21.55-21.551C327.286,279,328.988,280.702,346.736,282.803z"/>
	</g>
</g>
<g id="DESIGNED_BY_FREEPIK">
	<g>
		<g id="XMLID_319_">
			<g id="XMLID_338_">
				<path id="XMLID_346_" style="fill:#F4F8F9;" d="M260.104,465.465c-0.432,0.443-0.803,0.931-1.108,1.453l-0.465-0.241
					c-0.067-0.298-0.349-0.503-0.659-0.466c-0.331,0.039-0.568,0.339-0.529,0.67c0.039,0.331,0.339,0.568,0.67,0.529
					c0.065-0.008,0.127-0.026,0.183-0.052l0.452,0.234c-0.251,0.554-0.433,1.139-0.539,1.744l0.747,0.132
					c0.23-1.306,0.85-2.507,1.792-3.473L260.104,465.465z"/>
				<path id="XMLID_345_" style="fill:#F4F8F9;" d="M265.592,463.163c-0.171,0-0.341,0.006-0.51,0.017l-0.074-0.626
					c0.188-0.149,0.296-0.389,0.266-0.645c-0.046-0.393-0.402-0.674-0.795-0.628c-0.393,0.046-0.674,0.402-0.628,0.795
					c0.03,0.254,0.189,0.461,0.405,0.564l0.073,0.624c-0.714,0.116-1.403,0.332-2.06,0.646l0.327,0.684
					c0.934-0.447,1.942-0.673,2.995-0.673c0.496,0,0.993,0.053,1.475,0.158l0.161-0.741
					C266.692,463.222,266.142,463.163,265.592,463.163z"/>
				<path id="XMLID_344_" style="fill:#F4F8F9;" d="M272.194,465.711c0.331-0.04,0.566-0.341,0.526-0.672
					c-0.04-0.331-0.341-0.566-0.672-0.526c-0.309,0.038-0.535,0.304-0.53,0.609l-0.416,0.363c-0.418-0.43-0.89-0.813-1.408-1.139
					l-0.404,0.641c1.134,0.715,2.021,1.726,2.563,2.925l0.691-0.313c-0.251-0.554-0.568-1.072-0.942-1.545l0.402-0.351
					C272.065,465.716,272.129,465.719,272.194,465.711z"/>
				<path id="XMLID_343_" style="fill:#F4F8F9;" d="M265.044,473.372c-0.386,0.023-0.775,0.035-1.157,0.035
					c-0.88,0-1.733-0.061-2.478-0.179c-0.39-0.062-0.846-0.155-1.27-0.292c1.046,1.861,3.069,3.125,5.388,3.125
					c2.855,0,5.262-1.916,5.95-4.504c-0.682,0.449-1.505,0.825-2.459,1.123C267.839,473.047,266.464,473.286,265.044,473.372z"/>
				<path id="XMLID_339_" style="fill:#F4F8F9;" d="M265.592,464.68c-3.352,0-6.08,2.666-6.08,5.943
					c0,0.426,0.046,0.849,0.137,1.261c0.673,0.483,2.706,0.89,5.348,0.731c2.879-0.173,5.297-0.957,6.672-2.159
					c-0.005-0.195-0.021-0.39-0.045-0.582C271.244,466.913,268.65,464.68,265.592,464.68z M263.432,471.194
					c-1.02,0-1.85-0.83-1.85-1.85c0-1.02,0.83-1.85,1.85-1.85c1.02,0,1.85,0.83,1.85,1.85
					C265.282,470.365,264.452,471.194,263.432,471.194z M268.17,470.286c-0.75,0-1.36-0.61-1.36-1.36s0.61-1.361,1.36-1.361
					c0.75,0,1.361,0.61,1.361,1.361S268.92,470.286,268.17,470.286z"/>
			</g>
			<path id="XMLID_336_" style="fill:#F4F8F9;" d="M281.595,466.547c-0.295-0.116-0.805-0.309-1.382-0.237
				c-0.551,0.069-0.844,0.341-0.844,1.007v0.866h2.228v1.717h-2.228v5.455h-1.932v-5.455h-1.34v-1.717h1.34v-0.888
				c0-1.68,0.896-2.783,2.568-2.783c0.643,0,1.157,0.122,1.59,0.308L281.595,466.547z"/>
			<path id="XMLID_334_" style="fill:#F4F8F9;" d="M286.298,469.879c-0.177-0.03-0.358-0.046-0.526-0.046
				c-0.896,0-1.51,0.548-1.51,1.614v3.908h-1.932v-7.172h1.873v0.785c0.451-0.673,1.14-0.977,2.021-0.977
				c0.414,0,0.848,0.128,1.094,0.337L286.298,469.879z"/>
			<path id="XMLID_331_" style="fill:#F4F8F9;" d="M293.965,471.757c0,0.222-0.015,0.489-0.037,0.651h-5.085
				c0.207,1.036,0.933,1.488,1.843,1.488c0.622,0,1.295-0.252,1.813-0.688l1.132,1.243c-0.814,0.748-1.85,1.088-3.057,1.088
				c-2.198,0-3.723-1.495-3.723-3.753c0-2.258,1.48-3.797,3.627-3.797C292.544,467.99,293.958,469.522,293.965,471.757z
				 M288.851,471.091h3.175c-0.177-0.918-0.733-1.436-1.562-1.436C289.554,469.655,289.021,470.203,288.851,471.091z"/>
			<path id="XMLID_328_" style="fill:#F4F8F9;" d="M301.618,471.757c0,0.222-0.015,0.489-0.037,0.651h-5.085
				c0.207,1.036,0.933,1.488,1.843,1.488c0.622,0,1.295-0.252,1.813-0.688l1.132,1.243c-0.814,0.748-1.85,1.088-3.057,1.088
				c-2.198,0-3.723-1.495-3.723-3.753c0-2.258,1.48-3.797,3.627-3.797C300.197,467.99,301.611,469.522,301.618,471.757z
				 M296.504,471.091h3.175c-0.178-0.918-0.733-1.436-1.562-1.436C297.207,469.655,296.674,470.203,296.504,471.091z"/>
			<path id="XMLID_325_" style="fill:#F4F8F9;" d="M309.964,471.764c0,2.154-1.495,3.775-3.471,3.775
				c-0.962,0-1.643-0.378-2.109-0.933v3.708h-1.924v-10.133h1.887v0.792c0.466-0.585,1.155-0.984,2.139-0.984
				C308.469,467.99,309.964,469.61,309.964,471.764z M304.287,471.764c0,1.132,0.747,1.976,1.843,1.976
				c1.14,0,1.85-0.881,1.85-1.976c0-1.095-0.71-1.976-1.85-1.976C305.035,469.788,304.287,470.632,304.287,471.764z"/>
			<path id="XMLID_322_" style="fill:#F4F8F9;" d="M313.068,465.836c0,0.696-0.54,1.229-1.236,1.229
				c-0.696,0-1.229-0.533-1.229-1.229c0-0.696,0.533-1.243,1.229-1.243C312.527,464.592,313.068,465.14,313.068,465.836z
				 M312.809,475.354h-1.932v-7.172h1.932V475.354z"/>
			<path id="XMLID_320_" style="fill:#F4F8F9;" d="M316.032,470.736l2.701-2.554h2.368l-3.479,3.375l3.501,3.797h-2.376
				l-2.716-2.901v2.901H314.1v-10.658h1.932V470.736z"/>
		</g>
		<g>
			<path style="fill:#F4F8F9;" d="M184.412,475.289v-1.055c-0.527,0.718-1.391,1.23-2.387,1.23c-1.846,0-3.149-1.406-3.149-3.706
				c0-2.256,1.289-3.721,3.149-3.721c0.952,0,1.816,0.469,2.387,1.245v-3.765h1.099v9.77H184.412z M184.412,473.37v-3.208
				c-0.395-0.615-1.245-1.143-2.124-1.143c-1.421,0-2.27,1.172-2.27,2.739c0,1.567,0.85,2.724,2.27,2.724
				C183.168,474.483,184.017,473.986,184.412,473.37z"/>
			<path style="fill:#F4F8F9;" d="M186.932,471.744c0-2.051,1.465-3.706,3.486-3.706c2.139,0,3.398,1.67,3.398,3.794v0.279h-5.727
				c0.088,1.333,1.025,2.446,2.549,2.446c0.805,0,1.626-0.322,2.182-0.894l0.527,0.718c-0.703,0.703-1.655,1.084-2.812,1.084
				C188.44,475.465,186.932,473.956,186.932,471.744z M190.403,468.947c-1.509,0-2.256,1.274-2.314,2.358h4.643
				C192.718,470.25,192.015,468.947,190.403,468.947z"/>
			<path style="fill:#F4F8F9;" d="M194.607,474.351l0.571-0.791c0.469,0.542,1.362,1.011,2.329,1.011c1.084,0,1.67-0.513,1.67-1.216
				c0-1.714-4.38-0.659-4.38-3.281c0-1.098,0.952-2.036,2.636-2.036c1.201,0,2.051,0.454,2.622,1.026l-0.513,0.762
				c-0.424-0.513-1.201-0.894-2.109-0.894c-0.967,0-1.567,0.483-1.567,1.113c0,1.552,4.38,0.527,4.38,3.281
				c0,1.187-0.952,2.138-2.783,2.138C196.306,475.465,195.325,475.113,194.607,474.351z"/>
			<path style="fill:#F4F8F9;" d="M201.477,466.471c0-0.41,0.337-0.747,0.732-0.747c0.41,0,0.747,0.337,0.747,0.747
				c0,0.41-0.337,0.732-0.747,0.732C201.814,467.203,201.477,466.881,201.477,466.471z M201.667,475.289v-7.075h1.099v7.075H201.667
				z"/>
			<path style="fill:#F4F8F9;" d="M204.582,477.105l0.556-0.82c0.586,0.703,1.289,0.967,2.3,0.967c1.172,0,2.27-0.571,2.27-2.124
				v-1.011c-0.513,0.718-1.377,1.26-2.373,1.26c-1.845,0-3.149-1.377-3.149-3.662c0-2.27,1.289-3.677,3.149-3.677
				c0.952,0,1.802,0.469,2.373,1.245v-1.069h1.098v6.87c0,2.344-1.641,3.076-3.369,3.076
				C206.237,478.16,205.417,477.926,204.582,477.105z M209.709,473.253v-3.091c-0.381-0.615-1.23-1.143-2.109-1.143
				c-1.421,0-2.27,1.128-2.27,2.695c0,1.553,0.849,2.695,2.27,2.695C208.478,474.41,209.328,473.868,209.709,473.253z"/>
			<path style="fill:#F4F8F9;" d="M217.413,475.289v-4.629c0-1.245-0.63-1.641-1.582-1.641c-0.865,0-1.685,0.527-2.095,1.099v5.17
				h-1.099v-7.075h1.099v1.025c0.498-0.586,1.465-1.201,2.519-1.201c1.48,0,2.256,0.747,2.256,2.285v4.966H217.413z"/>
			<path style="fill:#F4F8F9;" d="M219.932,471.744c0-2.051,1.465-3.706,3.486-3.706c2.139,0,3.398,1.67,3.398,3.794v0.279h-5.727
				c0.088,1.333,1.025,2.446,2.549,2.446c0.806,0,1.626-0.322,2.183-0.894l0.527,0.718c-0.703,0.703-1.655,1.084-2.812,1.084
				C221.441,475.465,219.932,473.956,219.932,471.744z M223.404,468.947c-1.509,0-2.256,1.274-2.314,2.358h4.643
				C225.718,470.25,225.015,468.947,223.404,468.947z"/>
			<path style="fill:#F4F8F9;" d="M233.35,475.289v-1.055c-0.527,0.718-1.392,1.23-2.388,1.23c-1.846,0-3.149-1.406-3.149-3.706
				c0-2.256,1.289-3.721,3.149-3.721c0.952,0,1.817,0.469,2.388,1.245v-3.765h1.098v9.77H233.35z M233.35,473.37v-3.208
				c-0.396-0.615-1.245-1.143-2.124-1.143c-1.421,0-2.27,1.172-2.27,2.739c0,1.567,0.849,2.724,2.27,2.724
				C232.105,474.483,232.954,473.986,233.35,473.37z"/>
			<path style="fill:#F4F8F9;" d="M239.692,475.289v-9.77h1.098v3.765c0.572-0.776,1.421-1.245,2.388-1.245
				c1.845,0,3.149,1.465,3.149,3.721c0,2.299-1.304,3.706-3.149,3.706c-0.996,0-1.86-0.513-2.388-1.23v1.055H239.692z
				 M242.9,474.483c1.436,0,2.285-1.157,2.285-2.724c0-1.568-0.85-2.739-2.285-2.739c-0.864,0-1.728,0.527-2.109,1.143v3.208
				C241.171,473.986,242.036,474.483,242.9,474.483z"/>
			<path style="fill:#F4F8F9;" d="M247.528,477.061c0.161,0.073,0.425,0.117,0.601,0.117c0.483,0,0.805-0.161,1.055-0.747
				l0.469-1.069l-2.959-7.148h1.187l2.358,5.8l2.344-5.8h1.201l-3.545,8.51c-0.425,1.025-1.143,1.421-2.08,1.435
				c-0.234,0-0.601-0.044-0.806-0.103L247.528,477.061z"/>
		</g>
	</g>
</g>
</svg>
